<svg xmlns="http://www.w3.org/2000/svg" viewBox="0 0 591.4963 129.0327"><g id="レイヤー_2" data-name="レイヤー 2"><g id="レイヤー_1-2" data-name="レイヤー 1"><path d="M21.5182,71.7768a.2514.2514,0,0,1-.1538-.1162l-.9985-1.7051a.25.25,0,0,1,.1616-.37C25.7345,68.4281,29.6989,63.34,30.43,56.9A36.5955,36.5955,0,0,0,20.6833,52.56a100.1276,100.1276,0,0,1-4.9317,11.8584c-1.8481,3.38-4.3047,5.2114-7.3007,5.4428q-.3788.0294-.7461.0293c-4.1724,0-7.0855-2.8095-7.4209-7.1591A11.5832,11.5832,0,0,1,5.4274,52.2953a16.693,16.693,0,0,1,8.3193-2.8906l1.3248-.1025.6816-2.2051c1.6963-5.2554,2.5156-8.0386,3.1543-10.7344l-10.62.82a17.75,17.75,0,0,0-2.3628.3242l-.4683.086a.2888.2888,0,0,1-.0449.0039.25.25,0,0,1-.249-.231L4.985,35.0688A.25.25,0,0,1,5.2341,34.8l.0146,0c.4243.0249.8247.0361,1.21.0361.5693,0,1.1069-.0249,1.643-.0659,0,0,17.6734-1.3642,17.68-1.3642a.25.25,0,0,1,.25.2431l.0518,1.9214C24.8356,40.0639,23.53,44.2362,21.7223,49.54a56.5565,56.5565,0,0,1,8.7915,2.2925l.0122-.2783-.4541-5.8559a9.4457,9.4457,0,0,0-.2583-1.524l-.15-.6719-.0161-.1787a.25.25,0,0,1,.2486-.27l6.3549-.0083A.2505.2505,0,0,1,36.5,43.32a13.2445,13.2445,0,0,0-.0542,2.3672l.2881,3.7339a36.2,36.2,0,0,1,.019,4.9673c2.1372,1.001,3.3057,1.5918,4.4238,2.2339a7.0246,7.0246,0,0,0,1.7735.7929.25.25,0,0,1,.1753.3453l-2.6641,6.0312a.2493.2493,0,0,1-.1885.1455.2251.2251,0,0,1-.04.0034.2515.2515,0,0,1-.1851-.0815c-.7138-.7852-.8354-.895-3.6655-3.0049L35.83,60.47l-.3086-.24c-2.0533,5.1987-5.7818,8.5141-12.0435,10.7251a8.71,8.71,0,0,0-1.7685.7929.2436.2436,0,0,1-.129.0362A.2742.2742,0,0,1,21.5182,71.7768ZM12.7843,51.8573a11.408,11.408,0,0,0-7.4516,3.49,9.3122,9.3122,0,0,0-2.64,7.15c.1914,2.4761,1.5429,4.2055,3.2875,4.2055.0674,0,.1353-.0029.2041-.0078,2.17-.1679,3.6626-2.8906,7.6075-13.872l.3872-1.0352Z" style="fill:#fcff40"/><path d="M25.7814,33.6559l.0519,1.9216c-1.434,5.1183-2.8726,9.5625-4.4432,14.1614a56.0486,56.0486,0,0,1,9.3852,2.4534l-.0185-.24.0186-.3863-.1293-1.6752-.3252-4.2121a9.7244,9.7244,0,0,0-.2655-1.5682l-.1477-.663-.0111-.1436,6.3547-.0086a13.5464,13.5464,0,0,0-.0544,2.4112l.2883,3.7335a36.8338,36.8338,0,0,1,.0085,5.1029c2.298,1.0743,3.45,1.6592,4.5589,2.296a7.3713,7.3713,0,0,0,1.8445.82l-2.6638,6.0311c-.7369-.81-.8911-.9421-3.7013-3.0367l-.5594-.3892-.5638-.4384c-1.9974,5.3057-5.7335,8.6756-12.014,10.8941a8.8539,8.8539,0,0,0-1.8148.8139L20.5816,69.83c5.3014-1.1792,9.42-6.4562,10.1138-13.058a36.8715,36.8715,0,0,0-10.17-4.5108,100.6363,100.6363,0,0,1-4.9931,12.0367c-1.814,3.3174-4.229,5.0926-7.1008,5.3143-.2456.0189-.4878.0283-.7253.0283-4.0206,0-6.8455-2.6808-7.1735-6.9286A11.2814,11.2814,0,0,1,5.57,52.5009a16.4855,16.4855,0,0,1,8.206-2.8481l1.4839-.1145.7321-2.3676c1.865-5.7774,2.6226-8.4359,3.2366-11.0833l-10.96.8462a21.24,21.24,0,0,0-2.8571.413L5.234,35.05c.4291.0249.8338.0362,1.2234.0362.5766,0,1.12-.0247,1.6632-.0666l17.6608-1.3634M14.5459,51.519l-1.7743.089c-6.1263.473-10.7532,5.4038-10.3283,10.9079.2026,2.6238,1.679,4.4365,3.5369,4.4365.0739,0,.1482-.0029.2233-.0087,2.2974-.1773,3.8213-2.8945,7.8237-14.0364l.5187-1.3883m21.7054-8.2233h.005m-10.4748-10.14-.0385.0015L8.0821,34.5208c-.5678.0438-1.0993.0652-1.6247.0652-.3937,0-.7844-.0116-1.1944-.0354L5.234,34.55a.5.5,0,0,0-.4985.5385l.1773,2.2969a.5.5,0,0,0,.588.4534l.4713-.0862a17.4941,17.4941,0,0,1,2.3348-.32l10.2772-.7934c-.6249,2.5853-1.4437,5.3464-3.0681,10.3784l-.6335,2.0488-1.1451.0884a16.9542,16.9542,0,0,0-8.4569,2.9389A11.8277,11.8277,0,0,0,.0343,62.75c.3466,4.4893,3.358,7.39,7.672,7.39q.3752,0,.7638-.03c3.0855-.2382,5.6092-2.1132,7.501-5.5729A99.0069,99.0069,0,0,0,20.84,52.86a36.5274,36.5274,0,0,1,9.323,4.1689c-.7643,6.2595-4.6291,11.1877-9.69,12.3134a.5.5,0,0,0-.3229.7408l.9985,1.7046a.5.5,0,0,0,.6889.1758,8.3794,8.3794,0,0,1,1.7215-.77c6.214-2.1951,9.9641-5.4679,12.07-10.5619l.0368.0286.5809.405c2.7972,2.0852,2.917,2.1934,3.6169,2.9627a.5.5,0,0,0,.37.1635.5065.5065,0,0,0,.08-.0065.5.5,0,0,0,.3771-.2915l2.6638-6.0311a.5.5,0,0,0-.3509-.6905,6.84,6.84,0,0,1-1.7064-.768c-1.0923-.6276-2.2367-1.2077-4.2857-2.1695a36.0286,36.0286,0,0,0-.0277-4.8318l-.2882-3.7335a12.8987,12.8987,0,0,1,.0486-2.2752.5.5,0,0,0-.4878-.5975h-.0057l-6.3546.0086a.5.5,0,0,0-.4979.5386l.0111.1436a.5024.5024,0,0,0,.0105.07l.1477.663a9.2591,9.2591,0,0,1,.255,1.498l.3252,4.2121.12,1.5513a57.4256,57.4256,0,0,0-8.2144-2.1371c1.76-5.1775,3.0437-9.2838,4.2619-13.6315a.4983.4983,0,0,0,.0183-.1483l-.0518-1.9217a.5.5,0,0,0-.5-.4865ZM5.98,66.4524c-1.6083,0-2.8577-1.6346-3.0383-3.975-.4067-5.267,4.02-9.9194,9.8682-10.3709l1.0012-.05-.2525.6759C9.7011,63.4713,8.1813,66.29,6.165,66.4452q-.0932.0072-.1848.0072Z" style="fill:#140a1f"/><path d="M52.4909,68.724a.2412.2412,0,0,1-.1006-.0215l-5.88-2.5791a.2492.2492,0,0,1-.1152-.3544l.3828-.6553A345.3543,345.3543,0,0,0,59.2819,29.7831c.1143-.3965.2241-.8349.3335-1.2739a.6591.6591,0,0,0,.0435-.1782l.0224-.1455a.25.25,0,0,1,.2466-.2081.2536.2536,0,0,1,.0762.0118l6.4179,2.0561a.25.25,0,0,1,.1431.3584,10.475,10.475,0,0,0-1.0444,2.4507l-.1153.3438c-1.43,4.3266-3.6264,10.2036-5.14,13.7954a9.4507,9.4507,0,0,1,6.0093-2.6553q.372-.0292.7314-.0288c4.0591,0,6.7959,2.6577,6.9732,6.77l.3994,8.2969c.1147,2.0376,1.0688,3.0717,2.8359,3.0717q.1824,0,.376-.0146c2.1562-.167,4.1006-1.6948,5.4736-4.3023a24.0789,24.0789,0,0,0,2.5142-8.1455c.0195-.3027.0371-.5293.0513-.707a4.4138,4.4138,0,0,0,.018-.8413.2493.2493,0,0,1,.249-.27.2556.2556,0,0,1,.0606.0073l2.2095.5513a.25.25,0,0,1,.1645.3515,6.802,6.802,0,0,0-.57,2.2373c-1.4194,9.9214-5.6807,15.6553-11.998,16.1426q-.425.0338-.8321.0332c-4.2959,0-6.9834-2.6675-7.1889-7.1357l-.4512-8.9673c-.1236-2.7222-1.0161-4.1021-2.6533-4.1021-.0826,0-.1665.0034-.253.01-2.0171.1558-3.792,1.6313-5.2758,4.3848-1.1646,2.1845-2.9253,6.73-5.8858,15.2-.1572.4433-.4219,1.3183-.4873,1.6425a.2485.2485,0,0,1-.13.1719A.252.252,0,0,1,52.4909,68.724Z" style="fill:#fcff40"/><path d="M59.9278,28.2274l6.418,2.056a11.98,11.98,0,0,0-1.1773,2.8354c-1.6,4.8421-4.2384,11.8345-5.7175,15.126a9.369,9.369,0,0,1,6.8433-3.6576q.3619-.0281.7119-.0279A6.4027,6.4027,0,0,1,73.73,51.0908l.4,8.2985c.121,2.1556,1.18,3.3093,3.0845,3.3093.1282,0,.26-.0052.3956-.0156,2.2492-.1737,4.2481-1.7237,5.6761-4.4345a24.3317,24.3317,0,0,0,2.5415-8.2361,10.02,10.02,0,0,0,.07-1.5941l2.2092.5513a7.0106,7.0106,0,0,0-.5922,2.3088c-1.4074,9.8338-5.5956,15.4541-11.77,15.9307q-.4156.0321-.8135.032c-4.127,0-6.74-2.569-6.9386-6.8971l-.4514-8.9679c-.13-2.88-1.1135-4.34-2.9033-4.34q-.1328,0-.2713.0107c-2.1061.1626-3.9613,1.702-5.4773,4.5155-1.1777,2.209-2.9438,6.775-5.9014,15.2367-.1581.4452-.427,1.3328-.4965,1.6751L46.61,65.8949l.3828-.6554a344.4323,344.4323,0,0,0,12.53-35.3922c.114-.3942.2244-.8357.3347-1.2776a1.4936,1.4936,0,0,0,.07-.3423m0-.5a.5.5,0,0,0-.493.4167l-.0233.1494a.3412.3412,0,0,1-.0168.0886.5159.5159,0,0,0-.0216.0665c-.1088.4357-.2175.871-.33,1.26A344.67,344.67,0,0,1,46.5457,65.0142l-.3671.6286a.5.5,0,0,0,.2309.71l5.88,2.5795a.5.5,0,0,0,.6909-.3584c.0629-.31.3267-1.1821.4777-1.6072,2.9566-8.4588,4.7123-12.9946,5.8714-15.1688,1.44-2.6722,3.1475-4.1035,5.0746-4.2523q.1189-.0092.2328-.0093c.5513,0,2.2289,0,2.4039,3.8624l.4514,8.97c.2089,4.5464,3.059,7.372,7.438,7.372q.4161,0,.852-.0334c6.4459-.4977,10.7881-6.3072,12.2266-16.3585a6.6,6.6,0,0,1,.5472-2.1618.5.5,0,0,0-.329-.7029l-2.2091-.5514a.5.5,0,0,0-.62.5237,4.1587,4.1587,0,0,1-.0178.8039c-.0141.1781-.0321.4054-.0525.7193a23.8057,23.8057,0,0,1-2.4845,8.0345c-1.3326,2.53-3.2049,4.01-5.2726,4.17q-.1839.0143-.3572.0142c-1.6325,0-2.4781-.9281-2.5853-2.8373l-.4-8.2946a6.9364,6.9364,0,0,0-7.2227-7.0074c-.2454,0-.4961.01-.75.0294a9.6814,9.6814,0,0,0-5.3537,2.0243c1.4829-3.6219,3.4323-8.8772,4.7411-12.8373l.1136-.3386a10.2189,10.2189,0,0,1,1.0276-2.4135.5.5,0,0,0-.286-.7163L60.08,27.7512a.5016.5016,0,0,0-.1525-.0238Z" style="fill:#140a1f"/><path d="M113.9723,65.081c-5.5376.0005-9.0537-2.7183-9.4047-7.272a6.8955,6.8955,0,0,1,2.2822-5.8257,11.5647,11.5647,0,0,1,6.9912-2.6509c.5976-.0464,1.2436-.07,1.92-.07.76,0,1.5347.0293,2.3076.0864l-.9155-11.8662a.2492.2492,0,0,1,.23-.268l11.5351-.8907a20.1479,20.1479,0,0,0,2.8272-.4092.2375.2375,0,0,1,.0488-.0048.25.25,0,0,1,.249.2309l.1773,2.2974a.25.25,0,0,1-.249.269h-.0108c-.5366-.0229-.9482-.0361-1.3374-.0361-.4765,0-.9194.02-1.5195.0659l-5.2544.4058.9062,11.7417a44.3239,44.3239,0,0,1,7.2564,3.1987,12.8817,12.8817,0,0,0,2.0469.9253.25.25,0,0,1,.1489.3618L131.12,60.9062a.2509.2509,0,0,1-.1856.1264.2383.2383,0,0,1-.0327.002.25.25,0,0,1-.1792-.0757c-.3437-.353-1.46-1.4751-1.46-1.4751l-.2432-.2065a21.5366,21.5366,0,0,0-3.8716-3.0586c.1089,5.4829-3.0044,8.2851-9.7588,8.8061C114.904,65.0624,114.4308,65.081,113.9723,65.081Zm-.0722-13.34c-.295,0-.5884.0112-.8819.0337a6.9875,6.9875,0,0,0-4.42,1.9121,5.0108,5.0108,0,0,0-1.519,3.9766c.2187,2.834,2.7675,4.8916,6.06,4.8916h.0005c.2022,0,.4058-.0078.6123-.0235a5.2628,5.2628,0,0,0,3.834-1.706,5.7861,5.7861,0,0,0,1.04-4.2456l-.313-4.0493A13.4908,13.4908,0,0,0,113.9,51.7411Zm-16.1118,8.19a.2456.2456,0,0,1-.1031-.0224l-6.0864-2.7564a.25.25,0,0,1-.1069-.3632c1.9052-2.9439,5.7812-13.0508,8.2026-21.3667l-6.3413.4892a17.677,17.677,0,0,0-2.3735.3262l-.4576.084a.2826.2826,0,0,1-.0449.0039.2488.2488,0,0,1-.249-.231l-.1777-2.2973a.25.25,0,0,1,.249-.2691l.0146.0005c.4229.0249.8218.0361,1.2061.0361.5708,0,1.11-.0249,1.647-.0664l7.24-.5586c1.2422-4.8554,1.8345-7.4448,2.0391-8.916a.2506.2506,0,0,1,.2475-.2153.2242.2242,0,0,1,.0571.0068l6.62,1.5591a.25.25,0,0,1,.1538.3774,5.51,5.51,0,0,0-.7515,2.0025l-.1387.4219c-.2773,1.0439-.5278,1.9619-.7456,2.76-.1469.5376-.2788,1.02-.3955,1.4561l10.9444-.8448a20.1332,20.1332,0,0,0,2.8271-.4091.2376.2376,0,0,1,.0488-.0049.25.25,0,0,1,.2491.2309l.1777,2.2974a.2494.2494,0,0,1-.249.269h-.0108c-.5371-.0229-.9487-.0361-1.3374-.0361-.477,0-.9194.02-1.5195.0659l-11.84.9141A178.0919,178.0919,0,0,1,98.8024,57.51c-.2759.68-.5307,1.417-.7744,2.2426a.2488.2488,0,0,1-.24.1792Z" style="fill:#fcff40"/><path d="M102.6938,24.0591l6.62,1.559a5.876,5.876,0,0,0-.7982,2.1322l-.1178.346c-.5225,1.9665-.938,3.4428-1.2361,4.5731l11.2955-.872a20.2392,20.2392,0,0,0,2.857-.413l.1774,2.2973c-.5431-.023-.9589-.0364-1.3521-.0364-.4813,0-.9287.02-1.5345.0668L106.592,34.64a177.0355,177.0355,0,0,1-8.0166,22.7657,24.0709,24.0709,0,0,0-.7871,2.2763L91.7016,56.925c1.9358-2.99,5.8653-13.2114,8.3333-21.7793l-6.7008.5173a21.187,21.187,0,0,0-2.8571.413L90.3,33.7787c.4287.0251.8329.0364,1.2222.0364.577,0,1.1214-.0249,1.6644-.0668l7.4188-.5727c1.2209-4.7644,1.872-7.5591,2.0887-9.1165m29.1,12.1012.1773,2.2973c-.543-.023-.9589-.0364-1.3521-.0364-.4813,0-.9287.02-1.5345.0668l-5.5041.4249.9385,12.1567a43.8367,43.8367,0,0,1,7.3753,3.2344,13.1967,13.1967,0,0,0,2.0951.9451l-3.0875,5.5353c-.5229-.5375-.5744-.5825-1.4618-1.4768l-.2579-.22a21.9981,21.9981,0,0,0-4.3011-3.3272c.2924,5.6583-2.7148,8.491-9.511,9.0156-.479.037-.946.0553-1.3982.0553-5.377,0-8.8114-2.5818-9.1557-7.041-.3473-4.4984,3.2044-7.758,9.0434-8.2087.6032-.0466,1.2447-.0688,1.9006-.0688.8533,0,1.7309.0376,2.58.1083l-.9385-12.1572,11.535-.89a20.24,20.24,0,0,0,2.8571-.413M113.14,62.8052q.3122,0,.6316-.0245c3.59-.2771,5.3967-2.4392,5.1048-6.22l-.3252-4.2116a13.7658,13.7658,0,0,0-4.652-.8582q-.4515,0-.9.0345c-3.7335.2883-6.4164,2.9509-6.1689,6.1572.23,2.9769,2.9173,5.1225,6.31,5.1225M102.6938,23.5591a.5.5,0,0,0-.4952.431c-.2013,1.4463-.78,3.9835-1.9891,8.7145l-7.0617.5452c-.57.044-1.1014.0653-1.6259.0653-.3938,0-.784-.0116-1.193-.0356L90.3,33.2787a.5.5,0,0,0-.4984.5385l.1773,2.2973a.5.5,0,0,0,.5881.4535l.46-.0844a17.5435,17.5435,0,0,1,2.3458-.3221l5.98-.4616C96.931,43.93,93.15,53.7677,91.2819,56.6533a.5.5,0,0,0,.2135.7272l6.0866,2.7564a.5.5,0,0,0,.6859-.314c.2408-.8164.493-1.5457.7707-2.23a174.8858,174.8858,0,0,0,7.9369-22.4819l11.6681-.9008c.6006-.0464,1.0341-.0653,1.4959-.0653.3871,0,.7965.0133,1.331.036l.0212,0a.5.5,0,0,0,.4985-.5385l-.1773-2.2973a.5.5,0,0,0-.5962-.4519,19.6675,19.6675,0,0,1-2.7979.4049l-10.5916.8176c.0924-.3418.1931-.7107.3021-1.11.2183-.7995.4695-1.7192.7519-2.7819l.1078-.3134.0264-.0932a5.2682,5.2682,0,0,1,.72-1.9318.5.5,0,0,0-.3073-.755l-6.62-1.559a.4954.4954,0,0,0-.1146-.0133Zm29.1,12.1012a.5038.5038,0,0,0-.0976.01,19.6749,19.6749,0,0,1-2.798.4049l-11.535.89a.5.5,0,0,0-.46.5371l.8937,11.5771c-.6832-.0443-1.366-.0667-2.0368-.0667-.6825,0-1.3349.0236-1.939.07a11.81,11.81,0,0,0-7.14,2.7154,7.1409,7.1409,0,0,0-2.3637,6.03c.3627,4.6979,3.9717,7.5026,9.6542,7.5026.4653,0,.9486-.0191,1.4367-.0568,6.7261-.5192,9.9251-3.26,9.9912-8.5981a21.09,21.09,0,0,1,3.4326,2.7684l.2832.2432.6452.6512c.3029.3041.4425.4442.7827.794a.5.5,0,0,0,.7951-.1051l3.0875-5.5354a.5.5,0,0,0-.2981-.7239,12.8936,12.8936,0,0,1-1.9954-.9043A44.8055,44.8055,0,0,0,124.9922,50.7l-.8745-11.3271,5.0056-.3865c.6007-.0463,1.0341-.0653,1.496-.0653.387,0,.7964.0133,1.3309.036l.0213,0a.5.5,0,0,0,.4985-.5384l-.1774-2.2974a.5.5,0,0,0-.4985-.4615ZM113.14,62.3052c-3.1587,0-5.6027-1.96-5.8112-4.661-.2266-2.9352,2.2277-5.3514,5.7089-5.62.284-.0219.5738-.033.8615-.033a13.16,13.16,0,0,1,4.1787.7232l.3,3.8851a5.55,5.55,0,0,1-.984,4.0672,5.0264,5.0264,0,0,1-3.6608,1.6157q-.3.0231-.5931.023Z" style="fill:#140a1f"/><path d="M159.44,60.9657a22.5325,22.5325,0,0,1-7.79-2.2182,10.2443,10.2443,0,0,1-5.6973-8.6695,11.0931,11.0931,0,0,1,3.7163-9.1406,15.3624,15.3624,0,0,1,4.666-3.0015L138.1,39.8026a13.96,13.96,0,0,0-1.6656.2979.245.245,0,0,1-.0566.0063.2491.2491,0,0,1-.249-.23l-.1348-1.7417a.25.25,0,0,1,.249-.27.2093.2093,0,0,1,.03.002,6.3868,6.3868,0,0,0,.769.043c.2808,0,.5772-.0142.899-.0391L161.716,35.28a6.9126,6.9126,0,0,0,1.5195-.311.25.25,0,0,1,.0972-.02.25.25,0,0,1,.249.231l.145,1.8789a.2473.2473,0,0,1-.0713.1948.2506.2506,0,0,1-.1777.0742l-.0161-.0005c-.2158-.0141-.4243-.0214-.6416-.0214-.2568,0-.5264.0107-.8335.0341a17.3372,17.3372,0,0,0-8.2261,3.0386c-2.9531,2.0694-4.4526,4.8418-4.2236,7.8081.3389,4.3848,4.39,6.9859,11.1142,7.1372a.25.25,0,0,1,.2378.3062l-1.1836,5.1426a.25.25,0,0,1-.2436.1938Zm-.9448-26.7578a.25.25,0,0,1-.2485-.2309l-.3272-4.2349a.2492.2492,0,0,1,.23-.2681s2.0625-.1592,2.0688-.1592a.25.25,0,0,1,.2491.231l.3266,4.2349a.2491.2491,0,0,1-.23.268S158.5016,34.2079,158.4948,34.2079Zm3.9966-.3086a.25.25,0,0,1-.2486-.2309l-.3271-4.2349a.2492.2492,0,0,1,.23-.2681s2.062-.1591,2.0683-.1591a.2495.2495,0,0,1,.2491.2309l.3266,4.2349a.2491.2491,0,0,1-.23.268S162.4982,33.8993,162.4914,33.8993Z" style="fill:#fcff40"/><path d="M164.2138,29.2563l.327,4.2349-2.0491.1582-.327-4.235,2.0491-.1581m-3.9959.3084.3269,4.235-2.05.1582-.3269-4.2349,2.0495-.1583m3.1148,5.6344.145,1.8787c-.2208-.0143-.4342-.0221-.656-.0221-.2636,0-.5394.011-.8547.0354a17.5094,17.5094,0,0,0-8.3514,3.0841c-3.0316,2.1239-4.5625,4.991-4.3278,8.0308.348,4.508,4.4737,7.2131,11.3572,7.3683l-1.1834,5.1425a22.3568,22.3568,0,0,1-7.6933-2.19,9.999,9.999,0,0,1-5.5668-8.4682A10.9014,10.9014,0,0,1,149.84,41.12a16.6276,16.6276,0,0,1,6.4177-3.6562l-18.1859,2.091a14.1825,14.1825,0,0,0-1.6941.3027l-.1345-1.7419a6.59,6.59,0,0,0,.7991.045c.2867,0,.59-.0146.9188-.04l23.7816-2.5921a7.076,7.076,0,0,0,1.59-.3289m.8817-6.4429-.0391.0015-2.049.1582a.5.5,0,0,0-.46.537l.327,4.235a.5.5,0,0,0,.4979.4615c.013,0,.0259-.0005.0391-.0015l2.049-.1582a.5.5,0,0,0,.46-.537l-.3269-4.2349a.5.5,0,0,0-.498-.4616Zm-3.9965.3085-.0385.0015-2.0495.1583a.5.5,0,0,0-.46.5369l.3269,4.235a.5.5,0,0,0,.4986.4615l.0385-.0015,2.0495-.1582a.5.5,0,0,0,.46-.537l-.327-4.235a.5.5,0,0,0-.4985-.4615Zm3.1148,5.6344a.4986.4986,0,0,0-.1944.0394,6.1675,6.1675,0,0,1-1.4574.2934L137.9071,37.623q-.48.0368-.8646.0371a6.0946,6.0946,0,0,1-.7389-.0413.488.488,0,0,0-.06-.0037.5.5,0,0,0-.4984.5385l.1344,1.7419a.5.5,0,0,0,.6122.4484,13.68,13.68,0,0,1,1.6405-.2932l14.7314-1.6938A15.1317,15.1317,0,0,0,149.5,40.7534a11.3366,11.3366,0,0,0-3.7966,9.344,10.48,10.48,0,0,0,5.8284,8.87,22.8109,22.8109,0,0,0,7.8862,2.2475c.0149.0013.03.002.0444.002a.5.5,0,0,0,.4869-.388l1.1833-5.1424a.5.5,0,0,0-.476-.612c-6.5806-.1484-10.5425-2.6659-10.87-6.907-.2219-2.8747,1.24-5.5677,4.1162-7.5828a17.0706,17.0706,0,0,1,8.1029-2.9951c.3012-.0232.5645-.0339.8163-.0339.2109,0,.4137.0075.6238.0211l.0323.001a.5.5,0,0,0,.4984-.5385l-.145-1.8787a.5.5,0,0,0-.4985-.4615Z" style="fill:#140a1f"/><path d="M181.2043,57.4882a.246.246,0,0,1-.1035-.0225.25.25,0,0,1-.1382-.164l-.5459-2.0767a.25.25,0,0,1,.2417-.3135l.0254.0015a5.5146,5.5146,0,0,0,.5688.0352c.1714,0,.3252-.0123.5425-.0289a29.8157,29.8157,0,0,0,5.936-1.46c9.1861-3.0894,13.7359-8.6509,13.1626-16.085C200.4,30.9882,196.903,27.75,190.4992,27.75q-.7734,0-1.6006.0635a103.2411,103.2411,0,0,0-15.81,3.4785,26.4786,26.4786,0,0,0-3.7519,1.3345.25.25,0,0,1-.1128.0268.2467.2467,0,0,1-.0972-.02.2506.2506,0,0,1-.1416-.1558l-.7666-2.4443a.252.252,0,0,1,.0318-.2149.25.25,0,0,1,.188-.1088,12.5165,12.5165,0,0,0,2.746-.5923c9.0328-2.4234,17.1661-4.1226,21.2286-4.4356.705-.0547,1.4013-.0825,2.0688-.0825,8.4483,0,13.4307,4.2764,14.03,12.0415.4238,5.49-1.666,9.91-6.3892,13.51-4.3979,3.38-10.851,5.7407-18.6606,6.8252a7.3989,7.3989,0,0,0-2.1465.4853A.2522.2522,0,0,1,181.2043,57.4882Z" style="fill:#fcff40"/><path d="M194.4808,24.85c8.25-.0005,13.1934,4.1894,13.7818,11.8107.4175,5.4082-1.6539,9.7568-6.292,13.2923-4.3179,3.3188-10.7309,5.6915-18.5432,6.7765a7.6907,7.6907,0,0,0-2.2233.5085l-.5457-2.0764a5.7114,5.7114,0,0,0,.5938.0364c.1774,0,.3371-.0123.562-.03a29.971,29.971,0,0,0,6.001-1.4741c9.292-3.1249,13.9111-8.7775,13.3273-16.3394-.5028-6.5131-4.145-9.8546-10.6443-9.8548q-.7823,0-1.6188.0645c-3.0631.2365-9.6418,1.7072-15.86,3.4874a26.3948,26.3948,0,0,0-3.7959,1.3519l-.7666-2.4444a12.7854,12.7854,0,0,0,2.7946-.6006c8.8206-2.3661,17.0639-4.11,21.18-4.4276.7033-.0543,1.3875-.0812,2.0489-.0813m.0015-.5h-.0016c-.674,0-1.3762.0279-2.0873.0828-4.077.3147-12.2276,2.0172-21.2711,4.4431a12.2084,12.2084,0,0,1-2.7035.5851.5.5,0,0,0-.4386.6482l.7666,2.4443a.5.5,0,0,0,.7024.2968,26.3314,26.3314,0,0,1,3.7174-1.32,102.9436,102.9436,0,0,1,15.7513-3.4669c.5424-.0418,1.0741-.063,1.58-.063,6.2511,0,9.6647,3.1606,10.1458,9.3932.5641,7.307-3.9271,12.78-12.9882,15.8271a29.5414,29.5414,0,0,1-5.88,1.4494c-.21.0162-.3583.0282-.5235.0282a5.2308,5.2308,0,0,1-.5427-.0338.4885.4885,0,0,0-.0511-.0026.5.5,0,0,0-.4836.6271l.5457,2.0764a.5.5,0,0,0,.7048.3214,7.31,7.31,0,0,1,2.0642-.4609c7.8591-1.0914,14.3528-3.4689,18.7858-6.8762,4.7947-3.6547,6.9167-8.1453,6.4858-13.7272-.611-7.9138-5.682-12.2722-14.2788-12.2722Z" style="fill:#140a1f"/><path d="M243.93,56.6835a.2486.2486,0,0,1-.1714-.1133c-5.8223-9.2436-18.2769-19.126-24.6778-19.5815a.25.25,0,0,1-.2314-.23l-.1626-2.1059a.2491.2491,0,0,1,.1724-.2569c5.0434-1.623,15.6079-11.5527,21.3276-20.0469l.3369-.5478a.2489.2489,0,0,1,.1821-.1172.2124.2124,0,0,1,.0308-.002.2507.2507,0,0,1,.1743.0708l5.3623,5.22a.25.25,0,0,1,.0039.3545c-5.4521,5.5483-16.4316,12.8-23.9853,15.8965,9.312,1.874,20.9126,8.5146,27.9267,16.0488a.25.25,0,0,1-.0244.3633L244.1286,56.63a.2492.2492,0,0,1-.1587.0571A.2283.2283,0,0,1,243.93,56.6835Z" style="fill:#fcff40"/><path d="M240.7364,13.9317l5.3625,5.2194c-5.58,5.6788-17.1277,13.2624-24.7041,16.1589,9.4664,1.6282,21.4485,8.4067,28.6407,16.1324L243.97,56.4368c-5.8711-9.3209-18.3848-19.2357-24.8717-19.6978l-.1626-2.106c5.1209-1.6471,15.7138-11.6131,21.4589-20.145l.342-.5563m0-.5a.4994.4994,0,0,0-.4259.2381l-.342.5563c-5.6845,8.4411-16.1841,18.3221-21.1861,19.9309a.5.5,0,0,0-.3454.5145l.1626,2.106a.5.5,0,0,0,.463.46c6.3388.4515,18.6953,10.2752,24.4841,19.4655a.5.5,0,0,0,.3435.2272.5084.5084,0,0,0,.08.0063.5.5,0,0,0,.3178-.114l6.0657-4.9944a.5.5,0,0,0,.0481-.7267c-6.8516-7.36-18.062-13.8708-27.28-15.9567,7.5423-3.2612,18.0379-10.2531,23.3344-15.6435a.5.5,0,0,0-.0079-.7087l-5.3624-5.2195a.5.5,0,0,0-.3488-.1416Z" style="fill:#140a1f"/><path d="M276.0832,51.7523a.244.244,0,0,1-.1206-.0312.2489.2489,0,0,1-.125-.1709l-.3975-2.04a.2505.2505,0,0,1,.2456-.2979.2591.2591,0,0,1,.07.01,2.9291,2.9291,0,0,0,.7906.0781c.35,0,.7973-.0234,1.3847-.0688,4.9493-.3824,9.2769-1.9141,12.1851-4.3135a8.9412,8.9412,0,0,0,3.2251-7.9888c-.3623-4.6885-3.6587-7.3779-9.044-7.3779q-.6482,0-1.3344.0527c-5.396.417-10.7383,3.3027-15.8784,8.5776a8.0176,8.0176,0,0,0-.6143.6143,1.6348,1.6348,0,0,0-.2695.2612.2493.2493,0,0,1-.19.0879h0a.2491.2491,0,0,1-.19-.0888l-3.8149-4.52a.25.25,0,0,1,.0854-.3877,5.4066,5.4066,0,0,0,1.3447-1.0278l19.41-17.229-15.1973,1.1729a13.7418,13.7418,0,0,0-2.334.4174.2514.2514,0,0,1-.06.0074.2495.2495,0,0,1-.249-.231l-.1846-2.3931a.25.25,0,0,1,.249-.269l.0269.0015a14.4213,14.4213,0,0,0,1.5268.0839c.2866,0,.5694-.01.8389-.03,0,0,25.2832-1.9517,25.29-1.9517a.25.25,0,0,1,.2491.231l.1513,1.9624a.2482.2482,0,0,1-.0854.208L277.34,28.7084a25.6825,25.6825,0,0,1,7.4951-1.6763c.8379-.0649,1.66-.0976,2.4429-.0976,8.144,0,12.8916,3.4,13.3682,9.5757a10.3874,10.3874,0,0,1-5.4815,10.6137c-4.0635,2.4136-8.7129,3.5884-17.1553,4.3355a5.267,5.267,0,0,0-1.8359.2759A.2416.2416,0,0,1,276.0832,51.7523Z" style="fill:#fcff40"/><path d="M292.7511,12.95l.1516,1.9624L275.9786,29.5555a25.4824,25.4824,0,0,1,8.8757-2.2744q1.2566-.097,2.4238-.0968c7.9268,0,12.6549,3.33,13.1193,9.3448.3621,4.6907-1.312,7.9493-5.3615,10.38-4.0056,2.3789-8.5365,3.5475-17.0486,4.3006a5.4787,5.4787,0,0,0-1.9041.292l-.3975-2.04a3.14,3.14,0,0,0,.86.0882c.3546,0,.8086-.024,1.4044-.07,5.0251-.3879,9.4283-1.98,12.3252-4.37a9.1829,9.1829,0,0,0,3.3152-8.2c-.373-4.831-3.8081-7.6089-9.2935-7.6091q-.6573,0-1.3529.0536c-5.4077.4175-10.8638,3.3422-16.0387,8.6527a8.129,8.129,0,0,0-.6256.6262,1.4842,1.4842,0,0,0-.2688.2612l-3.8152-4.52a5.5639,5.5639,0,0,0,1.41-1.0717l19.9611-17.7183-15.9379,1.23a14.01,14.01,0,0,0-2.3749.4238l-.1847-2.3928a14.5912,14.5912,0,0,0,1.554.0854c.2932,0,.5821-.01.8577-.0312L292.7511,12.95m.0006-.5-.039.0015-25.27,1.9509c-.2634.02-.5393.03-.8193.03a14.1074,14.1074,0,0,1-1.5-.0825.49.49,0,0,0-.0541-.0029.5.5,0,0,0-.4985.5384l.1847,2.3928a.5.5,0,0,0,.6185.447,13.5637,13.5637,0,0,1,2.2933-.4107l14.4558-1.116L263.2734,32.9292a5.1274,5.1274,0,0,1-1.2893.9924.5.5,0,0,0-.1708.7757l3.8153,4.52a.5.5,0,0,0,.3808.1775h.0012a.5.5,0,0,0,.3806-.1757,1.0035,1.0035,0,0,1,.1956-.1911.5.5,0,0,0,.0732-.07,7.6762,7.6762,0,0,1,.5861-.5849c5.1139-5.2471,10.4026-8.108,15.7361-8.52.4473-.0345.8895-.0521,1.3144-.0521,5.2387,0,8.4443,2.6054,8.7949,7.1476a8.7057,8.7057,0,0,1-3.141,7.7814c-2.8625,2.3618-7.14,3.8736-12.0393,4.2518-.6059.0468-1.04.0685-1.3659.0685a2.7558,2.7558,0,0,1-.72-.0683.5.5,0,0,0-.63.5758l.3975,2.04a.5.5,0,0,0,.6713.3707,4.993,4.993,0,0,1,1.7618-.26c8.4891-.751,13.1671-1.935,17.2657-4.3692,4.2011-2.5222,5.9814-5.9691,5.6047-10.8488-.4812-6.2321-5.4446-9.8064-13.6178-9.8064-.79,0-1.6181.0331-2.4623.0983a26.222,26.222,0,0,0-6.2972,1.2363L293.23,15.29a.5.5,0,0,0,.1714-.4166l-.1516-1.9624a.5.5,0,0,0-.4979-.4616Z" style="fill:#140a1f"/><path d="M319.5646,49.9843a.25.25,0,0,1-.23-.1528l-.7666-1.8189a.25.25,0,0,1,.2109-.3462,20.8073,20.8073,0,0,0,8.8955-3.5434c4.8457-3.28,6.9541-8.0645,6.4482-14.627-.46-5.9644-3.0732-8.624-8.4726-8.624q-.6827,0-1.4229.0571c-3.539.2734-14.0371,2.9741-15.6015,4.0132a.2487.2487,0,0,1-.1382.042.2428.2428,0,0,1-.09-.0171.25.25,0,0,1-.1524-.1719l-.5571-2.22a.25.25,0,0,1,.2236-.31,9.1258,9.1258,0,0,0,2.9072-.7939,82.2939,82.2939,0,0,1,16.6636-3.8945c.627-.0489,1.2442-.0733,1.835-.0733,7.3886,0,11.7549,3.8486,12.2939,10.8364.8418,10.8853-5.7676,17.7764-20.2051,21.0669a15.2927,15.2927,0,0,0-1.7519.5606A.25.25,0,0,1,319.5646,49.9843Zm12.6485-33.8609a.249.249,0,0,1-.1231-.0322c-4.7129-2.6577-12.9844-4.9892-17.6992-4.9892a.3366.3366,0,0,1-.2568-.1158c-.0459-.0722-.0967-.163-.0606-.24l1.2-2.5478a.2514.2514,0,0,1,.2266-.1436.2957.2957,0,0,1,.0351.0024,7.8249,7.8249,0,0,0,1.3467.0552l.3564.001a70.0466,70.0466,0,0,1,15.4083,1.7114c.6464.1934,1.0859.3032,2.11.5591a.25.25,0,0,1,.165.35L332.4386,15.98a.25.25,0,0,1-.1494.1313A.2582.2582,0,0,1,332.2131,16.1234Z" style="fill:#fcff40"/><path d="M315.5,8.3044a10.5763,10.5763,0,0,0,1.7372.0589l.0961,0a69.816,69.816,0,0,1,15.25,1.7038c.6406.1915,1.0821.3019,2.1128.5592l-2.4834,5.2473c-4.7021-2.6512-13.0423-5.0211-17.8225-5.0212l-.0907,0,1.2-2.5482m13.8158,9.4494c7.2693,0,11.5123,3.6957,12.0457,10.6054.8314,10.7687-5.6276,17.5262-20.0118,20.8042a15.5832,15.5832,0,0,0-1.7856.5707l-.7662-1.8185a21.1644,21.1644,0,0,0,9.0164-3.5854c4.8951-3.3144,7.0667-8.2486,6.5568-14.8535-.4672-6.0524-3.187-8.8543-8.7215-8.8546q-.6923,0-1.4427.0581c-3.59.2772-14.1631,3.02-15.72,4.0541l-.5572-2.22a9.3406,9.3406,0,0,0,2.9711-.8072,81.5706,81.5706,0,0,1,16.6-3.8815q.9363-.0723,1.8149-.0722M315.5,7.8044a.5.5,0,0,0-.4522.287l-1.2,2.5482a.5.5,0,0,0,.4524.713h.0031l.0876,0c4.68,0,12.8941,2.3164,17.5769,4.9567a.5.5,0,0,0,.6975-.2217l2.4834-5.2472a.5.5,0,0,0-.3308-.699c-1.0313-.2575-1.4581-.3641-2.0907-.5532a70.0566,70.0566,0,0,0-15.393-1.7247l-.0978,0-.3549-.0009a7.58,7.58,0,0,1-1.31-.0529.5008.5008,0,0,0-.071-.0051Zm13.8163,9.4494c-.597,0-1.2207.0248-1.8537.0736a82.6039,82.6039,0,0,0-16.7292,3.909,8.7631,8.7631,0,0,1-2.842.78.5.5,0,0,0-.4465.62l.5573,2.22a.5.5,0,0,0,.7617.2947c1.3739-.913,11.7841-3.6865,15.4817-3.9719.487-.0376.9594-.0567,1.4042-.0567,5.2389,0,7.7749,2.5888,8.223,8.3931.4991,6.4646-1.5743,11.1752-6.3386,14.4009a20.8669,20.8669,0,0,1-8.7746,3.501.5.5,0,0,0-.4223.6927l.7663,1.8185a.4994.4994,0,0,0,.6384.2732,14.9941,14.9941,0,0,1,1.7348-.5545c14.5624-3.3184,21.235-10.2955,20.3834-21.3263-.5509-7.1366-5.0058-11.0669-12.5439-11.0669Z" style="fill:#140a1f"/><path d="M361.79,47.8681a5.5318,5.5318,0,0,1-5.4268-5.0152,5.4927,5.4927,0,0,1,4.9971-5.8344c.1319-.01.2637-.0157.3936-.0157a5.5394,5.5394,0,0,1,5.4424,5.0137,5.4588,5.4588,0,0,1-4.9991,5.8355Q361.9924,47.868,361.79,47.8681Zm2.957-13.7969a.258.258,0,0,1-.0849-.0147l-1.666-.5981a.25.25,0,0,1-.1612-.2769c.0391-.2373.1045-.5922.1758-.9785.1309-.7133.2813-1.5341.3252-1.8994l3.7217-26.397.0332-.2778a1.3038,1.3038,0,0,1,.0293-.2656,5.9827,5.9827,0,0,0,.0674-.6177c.0742-.564.1435-1.16.2021-1.6616L367.4621.47a.2495.2495,0,0,1,.3232-.208l10.4864,3.3272a.2491.2491,0,0,1,.1308.3789,10.693,10.693,0,0,0-.8857,1.8628c-.169.3276-.3028.626-.4287.9077l-.2022.4443L366.3781,31.0746c-.4893,1.127-1.0938,2.2793-1.4111,2.8652A.2493.2493,0,0,1,364.7472,34.0712Z" style="fill:#fcff40"/><path d="M367.71.5l10.4869,3.3269a10.8273,10.8273,0,0,0-.9143,1.9157c-.2437.4657-.4321.9277-.6236,1.3337l-10.51,23.8978c-.4267.983-.961,2.0307-1.4018,2.8471l-1.6666-.598c.1147-.6793.4357-2.3251.5035-2.89l3.72-26.3923.034-.2818c-.0086-.1113.0776-.4534.0986-.902.1062-.79.2048-1.6931.2727-2.2573m-5.955,36.7531a5.2949,5.2949,0,0,1,5.1928,4.7827,5.21,5.21,0,0,1-4.7694,5.5673q-.1948.0152-.3877.015a5.183,5.183,0,0,1-.41-10.3506c.1251-.01.25-.0144.3745-.0144M367.71,0a.5.5,0,0,0-.4964.44l-.0672.5732c-.059.5091-.13,1.1211-.2046,1.6773a6.15,6.15,0,0,1-.0694.6366,2.2851,2.2851,0,0,0-.0343.3066l-.03.2473-3.7188,26.3823c-.0439.3645-.2006,1.2182-.3265,1.9042-.07.3835-.135.7359-.1749.9721a.5.5,0,0,0,.3241.5539l1.6667.598a.5.5,0,0,0,.6088-.2331c.3909-.7241.9547-1.8125,1.4205-2.8855L377.1166,7.2776c.0619-.1309.129-.28.1981-.4349.1246-.2783.2561-.5726.4108-.8683a.493.493,0,0,0,.0251-.056,10.2717,10.2717,0,0,1,.8594-1.81.5.5,0,0,0-.262-.7582L367.8611.0234A.5.5,0,0,0,367.71,0Zm-5.9545,36.7531h0q-.2061,0-.4134.0159a5.7446,5.7446,0,0,0-5.2284,6.1031,5.7873,5.7873,0,0,0,5.6771,5.246q.2117,0,.4262-.0164a5.71,5.71,0,0,0,5.2294-6.1044,5.794,5.794,0,0,0-5.6908-5.2442Z" style="fill:#140a1f"/><path d="M62.3381,125.9926A2.4995,2.4995,0,0,1,59.9723,124.3l-.84-2.46a2.5,2.5,0,0,1,2.2192-3.3037c4.4151-.2588,9.41-3.2832,12.7256-7.7031,2.7974-3.7119,3.7363-7.459,3.815-15.62H60.1183a6.9629,6.9629,0,0,0-2.0332.2256,2.4707,2.4707,0,0,1-.6069.0752,2.5,2.5,0,0,1-2.5-2.5v-3a2.5,2.5,0,0,1,3.105-2.4258,9.39,9.39,0,0,0,2.0351.2256H77.8976v-9.38a18.5416,18.5416,0,0,0-.1631-2.4063,2.5,2.5,0,0,1,2.483-2.7929h8.64a2.5,2.5,0,0,1,2.457,2.9609,12.3614,12.3614,0,0,0-.2573,2.2383v9.38h13.9995a6.7971,6.7971,0,0,0,1.9556-.2041,2.5,2.5,0,0,1,3.1846,2.4043v3a2.5006,2.5006,0,0,1-3.0254,2.4443,9.71,9.71,0,0,0-2.1148-.2451H91.071c.0385,17.165-7.4551,25.873-25.6143,29.8808a8.3974,8.3974,0,0,0-1.9053.584A2.4947,2.4947,0,0,1,62.3381,125.9926Z" style="fill:#cbf569"/><path d="M88.8571,75.7348a14.8358,14.8358,0,0,0-.3,2.6992v11.88h16.4995a9.1563,9.1563,0,0,0,2.64-.3v3a12.2174,12.2174,0,0,0-2.64-.3008H88.5568v1.32c.36,16.7393-6.2392,24.7793-23.6386,28.6191a9.781,9.781,0,0,0-2.58.84l-.84-2.46c5.1-.3,10.7993-3.66,14.5791-8.6992,3.3-4.38,4.32-8.88,4.32-18.3v-1.32H60.1183a9.3679,9.3679,0,0,0-2.64.3008v-3a11.85,11.85,0,0,0,2.64.3H80.3976V78.434a21.0666,21.0666,0,0,0-.18-2.6992h8.64m0-5h-8.64a5,5,0,0,0-4.9657,5.585,16.0443,16.0443,0,0,1,.1458,2.1142v6.88H60.1183a7.0576,7.0576,0,0,1-1.43-.1511,5,5,0,0,0-6.21,4.8513v3a5,5,0,0,0,6.2138,4.85,4.5127,4.5127,0,0,1,1.4263-.1512H75.3289c-.2685,6.4719-1.3277,9.0668-3.2448,11.6111-2.8551,3.8062-7.2245,6.502-10.8793,6.7168a5,5,0,0,0-4.4384,6.6069l.84,2.46a5,5,0,0,0,7.1587,2.7561,10.7279,10.7279,0,0,1,1.26-.3355c18.3631-4.0524,26.7711-13.06,27.4939-29.8153h11.5371a7.2538,7.2538,0,0,1,1.5893.1891,5,5,0,0,0,6.0509-4.8883v-3a5,5,0,0,0-6.3693-4.8089,4.4846,4.4846,0,0,1-1.2709.1087H93.5568v-6.88a10.2285,10.2285,0,0,1,.2145-1.7768,5,5,0,0,0-4.9142-5.9224Zm0,10h0Z" style="fill:#541745"/><path d="M117.007,126.5111a2.4525,2.4525,0,0,1-.8208-.14,2.5189,2.5189,0,0,1-1.5317-1.4668l-.96-2.58a2.5,2.5,0,0,1,2.08-3.3584A19.2716,19.2716,0,0,0,128.11,111.75c2.1456-2.6377,3.2554-5.668,3.6456-10.1172H113.9382a13.25,13.25,0,0,0-2.5523.32,2.5662,2.5662,0,0,1-.4477.04,2.4994,2.4994,0,0,1-2.5-2.5v-3.06a2.5,2.5,0,0,1,2.5-2.5,2.4394,2.4394,0,0,1,.46.043,14.5906,14.5906,0,0,0,2.54.2568h17.9589V87.2856c-5.2192.332-9.2168.4882-12.4394.4882a12.4443,12.4443,0,0,0-2.7383.2364,2.5444,2.5444,0,0,1-.5615.0634,2.5,2.5,0,0,1-2.458-2.0429l-.48-2.5791a2.5,2.5,0,0,1,2.458-2.9571,2.33,2.33,0,0,1,.2471.0127l.2627.0264a10.9158,10.9158,0,0,0,1.17.08c5.7627,0,20.6626-2.9287,27.97-5.4981,2.8506-.9668,4.625-1.7734,5.2993-2.4052a2.5,2.5,0,0,1,3.8238.49l4.62,7.3193a2.5,2.5,0,0,1-1.7027,3.8l-.5239.084c-.5244.082-1.1382.1787-2.4575.4414-2.2393.4385-5.8184.9395-9.69,1.3633v8.0254h14.1792a14.3486,14.3486,0,0,0,2.5665-.2617,2.5,2.5,0,0,1,2.9335,2.4619v3.06a2.4989,2.4989,0,0,1-3.27,2.3779s-.6425-.0986-.68-.1065a9.868,9.868,0,0,0-1.5494-.1318H144.5685c-1.1123,12.6758-9.1147,20.499-24.39,23.88a9.7693,9.7693,0,0,0-1.8618.6435A2.61,2.61,0,0,1,117.007,126.5111Z" style="fill:#cbf569"/><path d="M152.3366,74.5346l4.62,7.3193c-.72.12-1.26.1807-3.0595.54-2.76.54-7.44,1.1406-11.7,1.56V96.7338h16.6792a16.9775,16.9775,0,0,0,3-.3v3.06l-.18-.0606-.78-.1191a12.2422,12.2422,0,0,0-2.04-.1807H142.1969c-.24,13.0195-7.38,20.5791-22.559,23.9395a11.3864,11.3864,0,0,0-2.64.96l-.96-2.58a21.7686,21.7686,0,0,0,14.04-8.16c2.88-3.5391,4.14-7.68,4.32-14.1592h-20.459a15.4479,15.4479,0,0,0-3,.36v-3.06a16.9775,16.9775,0,0,0,3,.3h20.459v-12.12c-6.06.42-11.04.66-14.9395.66a15.0611,15.0611,0,0,0-3.3.3l-.48-2.5791a15.9194,15.9194,0,0,0,1.68.1192c6,0,21.1191-2.9395,28.7988-5.64,3.36-1.14,5.22-2.04,6.18-2.9394m0-5a5,5,0,0,0-3.4066,1.34c-.1436.1179-.9779.7105-4.3789,1.8641l-.0524.0181c-6.9767,2.453-21.6882,5.3566-27.14,5.3566a8.89,8.89,0,0,1-.9155-.0673l-.2708-.0274c-.1651-.0164-.33-.0245-.4943-.0245a5,5,0,0,0-4.9152,5.9149l.48,2.5791a5,5,0,0,0,6.0383,3.9575,10.1992,10.1992,0,0,1,2.1771-.1722c2.7025,0,5.93-.1073,9.9395-.3333v1.7933h-15.459a11.9572,11.9572,0,0,1-2.08-.2145,5,5,0,0,0-5.92,4.9147v3.06a5,5,0,0,0,5.8954,4.9192,11.273,11.273,0,0,1,2.1046-.28h14.9563a12.6832,12.6832,0,0,1-2.6954,6.0033q-.0289.0356-.0572.0717a16.9017,16.9017,0,0,1-10.6306,6.2721,5,5,0,0,0-4.16,6.7158l.96,2.58a5,5,0,0,0,7.2,2.5786,10.86,10.86,0,0,1,1.3107-.4234c15.5266-3.4631,24.0676-11.27,25.9708-23.7982h12.0831a7.8812,7.8812,0,0,1,1.0592.0835c.0682.0134.1569.0293.2257.04l.401.0613a5,5,0,0,0,6.3141-4.8242v-3.06a5,5,0,0,0-5.8674-4.9242,12.0432,12.0432,0,0,1-2.1326.224H147.1969V88.4362c2.7522-.3314,5.588-.73,7.66-1.1353,1.2914-.2578,1.8666-.3479,2.3742-.4273.1856-.0291.3614-.0567.5483-.0879a5,5,0,0,0,3.4053-7.6005l-4.62-7.3193a5.0006,5.0006,0,0,0-4.2286-2.3314Z" style="fill:#541745"/><path d="M207.4167,122.0326a2.4682,2.4682,0,0,1-.6875-.0967,4.6259,4.6259,0,0,0-1.5323-.2031H172.318a6.214,6.214,0,0,0-1.6142.2256,2.4995,2.4995,0,0,1-3.1055-2.4258v-2.76a2.5,2.5,0,0,1,3.1572-2.4122,5.7875,5.7875,0,0,0,1.5625.212h16.67l1.4209-16.1787h-13.05a6.18,6.18,0,0,0-1.6118.2246,2.5006,2.5006,0,0,1-3.1084-2.4248v-2.82a2.4988,2.4988,0,0,1,3.291-2.3711,4.9963,4.9963,0,0,0,1.4292.2315h22.979a2.5,2.5,0,0,1,2.4888,2.7363l-1.9595,20.6026h4.3305a6.4873,6.4873,0,0,0,1.6143-.2256,2.5,2.5,0,0,1,3.1055,2.4258v2.76a2.5,2.5,0,0,1-2.5,2.5Z" style="fill:#cbf569"/><path d="M175.1379,93.3734a7.445,7.445,0,0,0,2.22.36h22.979l-2.22,23.3389h7.0795a9.0247,9.0247,0,0,0,2.22-.3v2.76a7.07,7.07,0,0,0-2.22-.3H172.318a8.6409,8.6409,0,0,0-2.22.3v-2.76a8.2911,8.2911,0,0,0,2.22.3h18.9595l1.86-21.1787H177.3581a8.6008,8.6008,0,0,0-2.22.3v-2.82m25.1992.36h.005m-25.2039-5.36a5,5,0,0,0-5,5v2.82a5,5,0,0,0,6.2164,4.85,3.696,3.696,0,0,1,1.0038-.1495H187.679l-.9817,11.1787H172.318a3.3088,3.3088,0,0,1-.9055-.1241,5,5,0,0,0-6.3142,4.8243v2.76a5,5,0,0,0,6.2111,4.8511,3.7434,3.7434,0,0,1,1.0086-.1509h32.8789a2.2348,2.2348,0,0,1,.8447.107,5,5,0,0,0,6.3751-4.8072v-2.76a5,5,0,0,0-6.2112-4.8511,4.1567,4.1567,0,0,1-1.0086.1509h-1.5814L205.2982,94.38a5.0034,5.0034,0,0,0-4.9561-5.6457h-22.984a2.5426,2.5426,0,0,1-.6381-.1035,4.9976,4.9976,0,0,0-1.5818-.2569Z" style="fill:#541745"/><path d="M229.4377,126.2924a2.5012,2.5012,0,0,1-2.36-1.6768l-.9-2.58a2.5,2.5,0,0,1,2.2485-3.32c3.4415-.1543,10.27-2.9072,13.7867-5.5586A27.1243,27.1243,0,0,0,253.569,95.6342H223.1979a14.85,14.85,0,0,0-2.5635.2617,2.528,2.528,0,0,1-.436.0381,2.5,2.5,0,0,1-2.5-2.5V90.3734a2.5,2.5,0,0,1,3.0156-2.4462,12.08,12.08,0,0,0,2.4839.3066h43.1382a2.5,2.5,0,0,1,2.49,2.7187c-1.72,19.6211-13.5356,30.877-36.1225,34.4092a5.8756,5.8756,0,0,0-1.9243.54A2.5027,2.5027,0,0,1,229.4377,126.2924Zm32.459-43.3779a2.4571,2.4571,0,0,1-.4908-.0489,10.9566,10.9566,0,0,0-2.5092-.2509H227.5778a15.0224,15.0224,0,0,0-2.5869.2656,2.5636,2.5636,0,0,1-.4126.0342,2.5,2.5,0,0,1-2.5-2.5v-3a2.5,2.5,0,0,1,2.5-2.5,2.4308,2.4308,0,0,1,.4106.0341,15.642,15.642,0,0,0,2.5889.2657h31.3189a14.5814,14.5814,0,0,0,2.54-.2569,2.4434,2.4434,0,0,1,.46-.0429,2.5,2.5,0,0,1,2.5,2.5v3a2.5,2.5,0,0,1-2.5,2.5Z" style="fill:#cbf569"/><path d="M261.8967,77.4145v3a13.3643,13.3643,0,0,0-3-.3H227.5778a17.4464,17.4464,0,0,0-2.9995.3v-3a18.1679,18.1679,0,0,0,2.9995.3h31.3189a16.9887,16.9887,0,0,0,3-.3M220.1984,90.3734a14.4649,14.4649,0,0,0,3,.36h43.1382c-1.62,18.48-12.5391,28.7988-34.0185,32.1582a7.7577,7.7577,0,0,0-2.88.9l-.9-2.58c4.02-.18,11.28-3.1191,15.18-6.06,7.4394-5.2793,11.6391-12.539,12.7788-22.0185H223.1979a17.4464,17.4464,0,0,0-3,.3V90.3734m46.1377.36h.005M224.5782,72.4144a5,5,0,0,0-5,5v3a5,5,0,0,0,5.8253,4.9314,12.8746,12.8746,0,0,1,2.1742-.2312h31.3189a8.5109,8.5109,0,0,1,2.0186.2025,5,5,0,0,0,5.9814-4.9027v-3a5,5,0,0,0-5.92-4.9147,11.9542,11.9542,0,0,1-2.08.2145H227.5778a13.441,13.441,0,0,1-2.1786-.232,5,5,0,0,0-.821-.0679Zm-4.38,12.959a5,5,0,0,0-5,5V93.434a5,5,0,0,0,5.8724,4.9233,12.6006,12.6006,0,0,1,2.1271-.2231h27.1528a24.4452,24.4452,0,0,1-9.5269,12.9409q-.0588.0418-.1165.0853c-3.3595,2.533-9.7286,4.9378-12.3928,5.0569a5,5,0,0,0-4.4978,6.6417l.9,2.58a5,5,0,0,0,7.2957,2.6395,4.0106,4.0106,0,0,1,.89-.2209q.0941-.0111.1876-.0258c11.8727-1.8568,20.7433-5.689,27.1187-11.7154,6.4175-6.0662,10.1489-14.3977,11.0921-24.766a5.0036,5.0036,0,0,0-4.96-5.6167H223.1979a9.715,9.715,0,0,1-1.9682-.2528,4.9945,4.9945,0,0,0-1.0312-.1076Z" style="fill:#541745"/><path d="M269.5041,125.0844a2.5034,2.5034,0,0,1-1.8262-1.0215l-1.44-1.98a2.5,2.5,0,0,1,1.1157-3.8008c1.312-.5107,3.6372-2.6426,5.64-6.1181,2.4322-4.543,3.2657-8.8321,3.2657-16.9307v-12.72a11.0036,11.0036,0,0,0-.2515-2.5118,2.5,2.5,0,0,1,2.4517-2.9882h8.1591a2.5007,2.5007,0,0,1,2.4576,2.96,14.5375,14.5375,0,0,0-.2574,2.54v12.72c0,13.7266-4.7158,22.1357-15.769,28.1172a8.4711,8.4711,0,0,0-1.5825,1.0088,2.4993,2.4993,0,0,1-1.7671.7324C269.6344,125.0922,269.57,125.0893,269.5041,125.0844Zm24.374-1.0723a2.5,2.5,0,0,1-2.5-2.5V79.7543a10.9617,10.9617,0,0,0-.251-2.51,2.4993,2.4993,0,0,1,2.4512-2.99h8.2793a2.5008,2.5008,0,0,1,2.4575,2.96,14.5348,14.5348,0,0,0-.2573,2.54V108.432c7.13-2.9052,14.4824-10.8691,15.3623-17.2588a2.5,2.5,0,0,1,3.4609-1.957l2.5205,1.08a2.4995,2.4995,0,0,1,1.252,3.416l-.1563.3115a13.4977,13.4977,0,0,0-1.1347,2.8555c-4.959,15.3867-14.8116,23.9873-31.0147,27.0879A2.4621,2.4621,0,0,1,293.8781,124.0121Z" style="fill:#cbf569"/><path d="M301.8576,76.7543a16.9784,16.9784,0,0,0-.3,3v32.0391c8.9394-1.74,19.1992-12,20.3389-20.2793l2.52,1.08a16.6473,16.6473,0,0,0-1.44,3.5391c-4.68,14.5195-13.7392,22.4395-29.0986,25.3789V79.7543a13.37,13.37,0,0,0-.3-3h8.2793m-15.2393,2.76a16.9775,16.9775,0,0,0-.3,3v12.72c0,12.72-4.26,20.3994-14.459,25.9189a10.24,10.24,0,0,0-2.16,1.44l-1.44-1.98c2.16-.84,4.86-3.66,6.9-7.2,2.6993-5.0391,3.6-9.6592,3.6-18.1787v-12.72a13.4281,13.4281,0,0,0-.3-3h8.1591m15.2393-7.76h-8.2793a5,5,0,0,0-4.7017,3.2988,4.999,4.999,0,0,0-2.2583-.539h-8.1591a5,5,0,0,0-4.9036,5.9775,8.5579,8.5579,0,0,1,.2034,2.0225v12.72c0,7.6825-.7226,11.5258-2.97,15.7482-1.7293,2.9767-3.6777,4.7052-4.3424,4.9707a5.0289,5.0289,0,0,0-2.2306,7.6019l1.44,1.98a5,5,0,0,0,3.6524,2.0428q.1957.0153.3909.0153a5,5,0,0,0,3.4546-1.3858,8.8373,8.8373,0,0,1,1.0553-.64c7.2607-3.9292,12.05-8.9643,14.6684-15.6317v11.5778a5,5,0,0,0,5.94,4.9109c17.1955-3.2908,27.6553-12.4282,32.9178-28.756a11.53,11.53,0,0,1,.9957-2.5217l.1579-.3151a5,5,0,0,0-2.5027-6.8319l-2.5206-1.08a5,5,0,0,0-6.9227,3.914c-.6117,4.4447-5.2851,10.1154-10.3855,13.4416V79.7543a11.9533,11.9533,0,0,1,.2144-2.08,5,5,0,0,0-4.9146-5.92Zm0,10h0Zm-15.2393,2.76h0Z" style="fill:#541745"/><path d="M323.0392,123.893a2.5,2.5,0,0,1-1.8857-.8584l-1.62-1.86a2.501,2.501,0,0,1,.5908-3.78c6.0449-3.6583,12.1289-18.8838,13.02-32.5821l.1748-2.5625v-.7549a2.4994,2.4994,0,0,1,2.5-2.5,2.4587,2.4587,0,0,1,.5323.0577l9.3593,2.04a2.4994,2.4994,0,0,1,1.7383,3.4893,8.0387,8.0387,0,0,0-.5771,2.2021c-3.2325,17.7822-8.8428,27.2832-20.7129,35.1338a3.9744,3.9744,0,0,0-1.1846,1.0586,2.5,2.5,0,0,1-1.8965.917Zm44.6543-1.3848a2.5132,2.5132,0,0,1-2.5107-2.6689c.1181-1.9493-3.0293-14.2286-5.6944-20.6465-.0156-.0371-.03-.0752-.0439-.1123-2.0664-5.7442-5.6875-12.2256-6.7646-13.3028a2.4991,2.4991,0,0,1-.1641-4.1367l3.42-2.52a2.4981,2.4981,0,0,1,1.4824-.4873,2.4494,2.4494,0,0,1,.4043.0332A2.5,2.5,0,0,1,359.466,79.7l.2187.3174a7.432,7.432,0,0,0,.8838,1.0957,94.4745,94.4745,0,0,1,17.6866,30.5713,10.52,10.52,0,0,0,.9521,2.2871,2.5,2.5,0,0,1-1.0293,3.4658l-9.36,4.8008A2.4579,2.4579,0,0,1,367.6935,122.5082Z" style="fill:#cbf569"/><path d="M357.4181,81.1342a11.0638,11.0638,0,0,0,1.3194,1.68,92.3011,92.3011,0,0,1,17.1592,29.6992,12.5854,12.5854,0,0,0,1.1406,2.6992l-9.36,4.8008c.1807-2.58-3.2392-15.42-5.88-21.7793-2.1591-6-6.4189-13.92-7.7988-14.58l3.42-2.5195m-21.6.36,9.3594,2.04a10.44,10.44,0,0,0-.7793,2.8789c-3.12,17.16-8.28,25.92-19.6191,33.4189a6.3168,6.3168,0,0,0-1.74,1.5606l-1.62-1.86c6.84-4.14,13.26-19.7988,14.22-34.5586l.18-2.64v-.84m21.6-5.36a4.9994,4.9994,0,0,0-2.9656.9745l-3.42,2.52a4.9937,4.9937,0,0,0-1.4126,1.611,5,5,0,0,0-3.3772-2.59l-9.3593-2.04a5,5,0,0,0-6.0649,4.8852v.67l-.1681,2.47c-.91,13.9879-6.99,27.6976-11.82,30.6206a5,5,0,0,0-1.1817,7.5613l1.62,1.86a5,5,0,0,0,3.77,1.7163l.0773-.0006a5,5,0,0,0,3.793-1.8336,1.652,1.652,0,0,1,.5722-.5194l.0561-.0365c12.519-8.2795,18.422-18.2249,21.78-36.6949q.014-.0767.0255-.1536a8.5874,8.5874,0,0,1,.2389-1.1554,5.0016,5.0016,0,0,0,1.4036,1.6456,59.7594,59.7594,0,0,1,6.1065,12.2822q.0408.1133.0869.2244c2.6,6.261,5.4289,17.4635,5.5036,19.6186a5,5,0,0,0,7.2759,4.6923l9.36-4.8008a5,5,0,0,0,2.0582-6.9318,7.6836,7.6836,0,0,1-.7133-1.7238q-.024-.0761-.05-.1512a97.0521,97.0521,0,0,0-18.1467-31.3711q-.0327-.0366-.0662-.0727a5.0852,5.0852,0,0,1-.6523-.8048l-.2346-.34a4.9995,4.9995,0,0,0-4.0956-2.1318Z" style="fill:#541745"/><path d="M426.4767,103.1938a2.4447,2.4447,0,0,1-.4287-.0372,12.1117,12.1117,0,0,0-2.331-.2636H381.8986a8.2139,8.2139,0,0,0-1.9082.1718,2.539,2.539,0,0,1-.7754.1211,2.5116,2.5116,0,0,1-2.5166-2.4921v-4.44a2.4995,2.4995,0,0,1,3.38-2.34,11.5335,11.5335,0,0,0,1.82.14H423.717a12.9154,12.9154,0,0,0,2.2675-.2509,2.5362,2.5362,0,0,1,.4922-.0489,2.501,2.501,0,0,1,2.5,2.5v4.4405a2.5,2.5,0,0,1-2.5,2.5Z" style="fill:#cbf569"/><path d="M426.4767,96.2533v4.4405a14.3885,14.3885,0,0,0-2.76-.3008H381.8986a9.7989,9.7989,0,0,0-2.7.3008v-4.44a10.4584,10.4584,0,0,0,2.7.3H423.717a15.4121,15.4121,0,0,0,2.76-.3m0-5a4.9972,4.9972,0,0,0-.9846.098,10.6368,10.6368,0,0,1-1.7751.2018H381.8986a9.621,9.621,0,0,1-1.25-.0847,5,5,0,0,0-6.4506,4.7849v4.4405a5,5,0,0,0,6.4629,4.7812,7.8272,7.8272,0,0,1,1.2373-.082H423.717a9.66,9.66,0,0,1,1.9021.2267,5,5,0,0,0,5.8576-4.9259v-4.44a5,5,0,0,0-5-5Z" style="fill:#541745"/><path d="M464.3371,124.7328c-9.6485,0-12.6944-.333-15.7432-2.6787-3.3623-2.5469-3.7959-6.8223-3.7959-10.2607v-10.94H434.0988a10.9617,10.9617,0,0,0-2.51.251,2.4474,2.4474,0,0,1-.49.0488,2.4995,2.4995,0,0,1-2.5-2.5v-3a2.5,2.5,0,0,1,2.5-2.5,2.4451,2.4451,0,0,1,.46.043,14,14,0,0,0,2.54.2568H444.798V84.1742h-7.6992a15.2123,15.2123,0,0,0-2.59.2656,2.4169,2.4169,0,0,1-.41.0342,2.5,2.5,0,0,1-2.5-2.5v-3a2.4995,2.4995,0,0,1,2.5-2.5,2.5618,2.5618,0,0,1,.4629.043,14.4389,14.4389,0,0,0,2.5371.2568h36.7783a14.2369,14.2369,0,0,0,2.5645-.2617,2.4995,2.4995,0,0,1,2.9355,2.4619v3a2.4995,2.4995,0,0,1-2.5,2.5,2.4474,2.4474,0,0,1-.49-.0488,10.9668,10.9668,0,0,0-2.51-.251h-16.34v9.2793h20.6a13.4016,13.4016,0,0,0,2.5107-.2519,2.5017,2.5017,0,0,1,2.9893,2.4521v3a2.5007,2.5007,0,0,1-2.9356,2.4619,13.8231,13.8231,0,0,0-2.5644-.2617h-20.6v10.2188a3.4306,3.4306,0,0,0,.1474,1.3623c.1114.0566.833.3379,3.8926.3379a153.184,153.184,0,0,0,16.1377-.6465,2.5421,2.5421,0,0,1,2.1387.4736,2.5082,2.5082,0,0,1,.9629,1.9531v7.4395a2.5,2.5,0,0,1-2.5,2.5c-.0742,0-.1494-.0029-.2246-.01l-.3067-.0283c-.4912-.0459-.8779-.082-1.2685-.082-.4512,0-.4512,0-2.041.1132C472.1418,124.6566,469.0138,124.7328,464.3371,124.7328Z" style="fill:#cbf569"/><path d="M476.8771,78.974v3a13.37,13.37,0,0,0-3-.3h-18.84V95.9535h23.1a15.9184,15.9184,0,0,0,3-.3v3a16.3555,16.3555,0,0,0-3-.3h-23.1v12.7188c0,3.48,1.1406,4.2,6.54,4.2,7.14,0,15.3-.36,16.7393-.72v7.4395c-.66-.06-1.2-.12-1.8-.12-.54,0-.54,0-2.22.12-2.46.18-5.76.24-9.96.24-9.5391,0-11.8789-.36-14.2188-2.16-1.98-1.5-2.82-3.96-2.82-8.2793v-13.44H434.0988a13.37,13.37,0,0,0-3,.3v-3a16.4265,16.4265,0,0,0,3,.3H447.298V81.6742H437.0988a17.5521,17.5521,0,0,0-3,.3v-3a16.8848,16.8848,0,0,0,3,.3h36.7783a16.8931,16.8931,0,0,0,3-.3m-42.7783-5a5,5,0,0,0-5,5v3a4.9994,4.9994,0,0,0,5.8206,4.9322,13.05,13.05,0,0,1,2.1794-.232h5.1992v4.2793h-8.1992a11.4475,11.4475,0,0,1-2.08-.2144,5,5,0,0,0-5.92,4.9146v3a5,5,0,0,0,5.9814,4.9028,8.51,8.51,0,0,1,2.0186-.2026h8.1992v8.44c0,4.0172.5458,9.0418,4.8015,12.2651,3.7683,2.8987,7.7222,3.1743,17.2376,3.1743,4.74,0,7.9239-.0782,10.3242-.2535,1.494-.1068,1.494-.1068,1.8555-.1068.2742,0,.5941.03,1.0368.071l.3135.0289q.2253.02.45.02a5,5,0,0,0,5-5v-7.4395a5,5,0,0,0-6.13-4.8707c-1.3689.24-8.4606.5905-15.61.5905-.6371,0-1.1415-.012-1.54-.03v-6.889h18.1a11.4945,11.4945,0,0,1,2.1284.2233,5,5,0,0,0,5.8716-4.9235v-3a5,5,0,0,0-5.9786-4.9033,10.9692,10.9692,0,0,1-2.0214.2031h-18.1V86.6742h13.84a8.51,8.51,0,0,1,2.0186.2026,5,5,0,0,0,5.9814-4.9028v-3a5,5,0,0,0-5.8716-4.9234,11.9332,11.9332,0,0,1-2.1284.2232H437.0988a11.85,11.85,0,0,1-2.0752-.2135,4.9957,4.9957,0,0,0-.9248-.0863Z" style="fill:#541745"/><path d="M485.5783,120.4731a2.5,2.5,0,0,1-2.5-2.5v-8.04a2.5,2.5,0,0,1,2.5-2.5,2.4451,2.4451,0,0,1,.46.043,14.58,14.58,0,0,0,2.54.2568h41.8779a14.5818,14.5818,0,0,0,2.54-.2568,2.4433,2.4433,0,0,1,.46-.043,2.5,2.5,0,0,1,2.5,2.5v8.04a2.5,2.5,0,0,1-2.5,2.5,2.4647,2.4647,0,0,1-.4912-.0489,10.9281,10.9281,0,0,0-2.5088-.2519H488.5783a15.0416,15.0416,0,0,0-2.5879.2666A2.5575,2.5575,0,0,1,485.5783,120.4731Zm42.8389-30.6592a2.4485,2.4485,0,0,1-.49-.0489,10.9659,10.9659,0,0,0-2.51-.2509H493.5578a15.1824,15.1824,0,0,0-2.5889.2656,2.4166,2.4166,0,0,1-.41.0342,2.5,2.5,0,0,1-2.5-2.5v-3.84a2.5,2.5,0,0,1,2.5-2.5,2.4356,2.4356,0,0,1,.46.043,14.5616,14.5616,0,0,0,2.5391.2568h31.8594a14.58,14.58,0,0,0,2.54-.2568,2.4436,2.4436,0,0,1,.46-.043,2.5,2.5,0,0,1,2.5,2.5v3.84a2.5,2.5,0,0,1-2.5,2.5Z" style="fill:#cbf569"/><path d="M528.4172,83.474v3.84a13.3643,13.3643,0,0,0-3-.3H493.5578a17.5408,17.5408,0,0,0-2.999.3v-3.84a16.957,16.957,0,0,0,2.999.3h31.8594a16.9793,16.9793,0,0,0,3-.3m5.039,26.459v8.04a13.3618,13.3618,0,0,0-3-.3008H488.5783a17.4655,17.4655,0,0,0-3,.3008v-8.04a16.9784,16.9784,0,0,0,3,.3h41.8779a16.9775,16.9775,0,0,0,3-.3M490.5588,78.474a5,5,0,0,0-5,5v3.84A5,5,0,0,0,491.38,92.246a13.014,13.014,0,0,1,2.1777-.2319h31.8594a8.51,8.51,0,0,1,2.0186.2025,5,5,0,0,0,5.9814-4.9027v-3.84a5,5,0,0,0-5.92-4.9146,11.9543,11.9543,0,0,1-2.08.2144H493.5578A11.9376,11.9376,0,0,1,491.48,78.56a4.9959,4.9959,0,0,0-.9208-.0856Zm42.8974,26.459a4.9947,4.9947,0,0,0-.92.0854,11.9544,11.9544,0,0,1-2.08.2144H488.5783a11.9544,11.9544,0,0,1-2.08-.2144,5,5,0,0,0-5.92,4.9146v8.04a4.9994,4.9994,0,0,0,5.8248,4.9314,12.9346,12.9346,0,0,1,2.1752-.2322h41.8779a8.506,8.506,0,0,1,2.0179.2033,5,5,0,0,0,5.9821-4.9025v-8.04a5,5,0,0,0-5-5Z" style="fill:#541745"/><path d="M586.4963,103.1938a2.443,2.443,0,0,1-.4287-.0372,12.1125,12.1125,0,0,0-2.3311-.2636H541.9181a8.2147,8.2147,0,0,0-1.9082.1718,2.539,2.539,0,0,1-.7754.1211,2.5118,2.5118,0,0,1-2.5166-2.4921v-4.44a2.4995,2.4995,0,0,1,3.38-2.34,11.5348,11.5348,0,0,0,1.82.14h41.8184a12.9165,12.9165,0,0,0,2.2676-.2509,2.5355,2.5355,0,0,1,.4922-.0489,2.5012,2.5012,0,0,1,2.5,2.5v4.4405a2.5,2.5,0,0,1-2.5,2.5Z" style="fill:#cbf569"/><path d="M586.4963,96.2533v4.4405a14.3886,14.3886,0,0,0-2.76-.3008H541.9181a9.7994,9.7994,0,0,0-2.7.3008v-4.44a10.459,10.459,0,0,0,2.7.3h41.8184a15.4131,15.4131,0,0,0,2.76-.3m0-5a4.9982,4.9982,0,0,0-.9847.098,10.6368,10.6368,0,0,1-1.7751.2018H541.9181a9.6206,9.6206,0,0,1-1.25-.0847,5,5,0,0,0-6.4507,4.7849v4.4405a5,5,0,0,0,6.4629,4.7812,7.8284,7.8284,0,0,1,1.2373-.082h41.8184a9.6611,9.6611,0,0,1,1.9022.2267,5,5,0,0,0,5.8576-4.9259v-4.44a5,5,0,0,0-5-5Z" style="fill:#541745"/><path d="M62.3381,124.9926a1.5016,1.5016,0,0,1-1.4195-1.0156l-.84-2.46a1.4988,1.4988,0,0,1,1.3315-1.9814c4.6963-.2764,9.9824-3.4571,13.4673-8.1026,3.0234-4.0127,4.0068-8.2109,4.02-17.22H60.1183a7.8834,7.8834,0,0,0-2.2758.2558,1.5,1.5,0,0,1-1.8643-1.455v-3a1.4991,1.4991,0,0,1,1.8633-1.4551,10.3687,10.3687,0,0,0,2.2768.2549H78.8976V78.434a19.6784,19.6784,0,0,0-.17-2.5234,1.4995,1.4995,0,0,1,1.49-1.6758h8.64a1.5,1.5,0,0,1,1.4741,1.7763,13.3225,13.3225,0,0,0-.2744,2.4229v10.38h14.9995a7.652,7.652,0,0,0,2.23-.2422,1.4773,1.4773,0,0,1,.4107-.0576,1.5,1.5,0,0,1,1.5,1.5v3a1.5015,1.5015,0,0,1-1.8155,1.4668,10.65,10.65,0,0,0-2.3247-.2676H90.06c.3208,17.2656-6.8808,25.9453-24.8188,29.9043a8.8048,8.8048,0,0,0-2.1753.6865A1.5,1.5,0,0,1,62.3381,124.9926Z" style="fill:#bef054"/><path d="M88.8571,75.7348a14.8358,14.8358,0,0,0-.3,2.6992v11.88h16.4995a9.1563,9.1563,0,0,0,2.64-.3v3a12.2174,12.2174,0,0,0-2.64-.3008H88.5568v1.32c.36,16.7393-6.2392,24.7793-23.6387,28.6191a9.7813,9.7813,0,0,0-2.58.84l-.84-2.46c5.1-.3,10.7993-3.66,14.5791-8.6992,3.3-4.38,4.32-8.88,4.32-18.3v-1.32H60.1183a9.3679,9.3679,0,0,0-2.64.3008v-3a11.85,11.85,0,0,0,2.64.3H80.3976V78.434a21.0666,21.0666,0,0,0-.18-2.6992h8.64m0-3h-8.64a3,3,0,0,0-2.9794,3.351,18.1843,18.1843,0,0,1,.1595,2.3482v8.88H60.1183a8.9279,8.9279,0,0,1-1.9139-.2106,3,3,0,0,0-3.7262,2.9108v3a3,3,0,0,0,3.7283,2.91,6.4777,6.4777,0,0,1,1.9118-.211H77.3861c-.1108,7.6865-1.0434,11.2829-3.7047,14.8147-3.235,4.3128-8.0848,7.2585-12.3592,7.51a3,3,0,0,0-2.6631,3.9641l.84,2.46a3,3,0,0,0,4.2953,1.6536,8.27,8.27,0,0,1,1.7882-.5372c18.2291-4.0229,25.8695-12.7291,25.987-29.865h13.4869a9.1355,9.1355,0,0,1,2.01.2338,3,3,0,0,0,3.6306-2.933v-3a3,3,0,0,0-3.8216-2.8853,6.2674,6.2674,0,0,1-1.8186.1851H91.5568v-8.88a11.9062,11.9062,0,0,1,.2488-2.1458,3,3,0,0,0-2.9485-3.5534Zm0,6h0Z" style="fill:#fdffcf"/><path d="M116.9977,125.5326a1.5,1.5,0,0,1-1.4057-.9765l-.96-2.58a1.4991,1.4991,0,0,1,1.2481-2.0147,20.3193,20.3193,0,0,0,13.0166-7.5937c2.4448-3.0049,3.62-6.4707,3.9345-11.7344h-18.893a13.9393,13.9393,0,0,0-2.7315.3359,1.4688,1.4688,0,0,1-.2685.0245,1.5008,1.5008,0,0,1-1.5-1.5v-3.06a1.5,1.5,0,0,1,1.5-1.5,1.55,1.55,0,0,1,.2758.0254,15.3821,15.3821,0,0,0,2.7242.2744h18.9589V86.2191c-5.7231.378-10.0229.5547-13.4394.5547a13.4745,13.4745,0,0,0-2.9629.2618,1.522,1.522,0,0,1-.3369.038,1.4988,1.4988,0,0,1-1.4746-1.2255l-.48-2.5791a1.5,1.5,0,0,1,1.4746-1.7745,1.2663,1.2663,0,0,1,.148.0078l.2607.0264a12.1006,12.1006,0,0,0,1.2715.085c5.8423,0,20.9189-2.959,28.3012-5.5547,3.0181-1.0234,4.8614-1.8789,5.6519-2.6192a1.5006,1.5006,0,0,1,1.0254-.4052,1.5738,1.5738,0,0,1,.1909.0117,1.504,1.504,0,0,1,1.0776.6875l4.62,7.3193a1.5,1.5,0,0,1-1.0215,2.28l-.5142.082c-.5332.084-1.1572.1817-2.4985.4493-2.3814.4658-6.312,1.0058-10.4937,1.4453v9.9238h15.1792a15.2791,15.2791,0,0,0,2.74-.2773,1.5552,1.5552,0,0,1,.26-.0225,1.499,1.499,0,0,1,1.5,1.5v3.06a1.5,1.5,0,0,1-1.978,1.4218l-.0571-.02-.6514-.1a10.9431,10.9431,0,0,0-1.8135-.1631H143.64c-.7539,12.89-8.3159,20.5029-23.6782,23.9043a10.2379,10.2379,0,0,0-2.17.7676A1.5,1.5,0,0,1,116.9977,125.5326Z" style="fill:#bef054"/><path d="M152.3366,74.5346l4.62,7.3193c-.72.12-1.26.1807-3.0595.54-2.76.54-7.44,1.1406-11.7,1.56V96.7338h16.6792a16.9775,16.9775,0,0,0,3-.3v3.06l-.18-.0606-.78-.1191a12.2422,12.2422,0,0,0-2.04-.1807H142.1969c-.24,13.0195-7.38,20.5791-22.559,23.9395a11.3864,11.3864,0,0,0-2.64.96l-.96-2.58a21.7686,21.7686,0,0,0,14.04-8.16c2.88-3.5391,4.14-7.68,4.32-14.1592H113.9382a15.4479,15.4479,0,0,0-3,.36v-3.06a16.9775,16.9775,0,0,0,3,.3h20.4589v-12.12c-6.0595.42-11.0395.66-14.9394.66a15.0611,15.0611,0,0,0-3.3.3l-.48-2.5791a15.9194,15.9194,0,0,0,1.68.1192c6,0,21.1191-2.9395,28.7988-5.64,3.36-1.14,5.22-2.04,6.18-2.9394m0-3a3,3,0,0,0-2.051.8108c-.4277.4008-1.6583,1.123-5.0921,2.2877-7.301,2.5669-22.1123,5.4807-27.8352,5.4807a10.64,10.64,0,0,1-1.1194-.0777l-.2644-.0268q-.1486-.0147-.2966-.0147a3,3,0,0,0-2.9492,3.5489l.48,2.5791a3,3,0,0,0,3.623,2.3745,12.0267,12.0267,0,0,1,2.6262-.2232c3.1231,0,6.9678-.1459,11.9394-.4557v5.9157H113.9382a14.0328,14.0328,0,0,1-2.4481-.2486,3,3,0,0,0-3.5519,2.9488v3.06a3,3,0,0,0,3.5372,2.9515,12.9286,12.9286,0,0,1,2.4628-.3119h17.2666c-.421,4.0462-1.4882,6.8494-3.4544,9.2657l-.0343.043a18.7484,18.7484,0,0,1-11.9942,7.0273,3,3,0,0,0-2.4958,4.0295l.96,2.58a3,3,0,0,0,4.4011,1.4983,10.6389,10.6389,0,0,1,1.7592-.5887c15.3005-3.403,23.4024-11.2211,24.6778-23.8552h13.852a9.3927,9.3927,0,0,1,1.4513.1223q.0675.0136.1357.0239l.5286.0808a3,3,0,0,0,3.8844-2.8666v-3.06a3,3,0,0,0-3.52-2.9545,13.8961,13.8961,0,0,1-2.48.2543H145.1969V86.6557c3.7127-.4143,7.1183-.8955,9.2758-1.3176,1.3244-.2644,1.9216-.3579,2.4485-.44.1791-.028.3486-.0546.5289-.0847a3,3,0,0,0,2.0431-4.56l-4.62-7.3194a3.001,3.001,0,0,0-2.5372-1.3988Z" style="fill:#fdffcf"/><path d="M207.4167,121.0326a1.488,1.488,0,0,1-.4126-.0576,5.5535,5.5535,0,0,0-1.8072-.2422H172.318a7.1467,7.1467,0,0,0-1.8564.2549,1.485,1.485,0,0,1-.3633.0449,1.4992,1.4992,0,0,1-1.5-1.5v-2.76a1.5,1.5,0,0,1,1.8941-1.4473,6.7511,6.7511,0,0,0,1.8256.2471h17.5855L191.5,97.394H177.3581a7.0907,7.0907,0,0,0-1.8555.2548,1.5,1.5,0,0,1-1.8647-1.455v-2.82a1.5,1.5,0,0,1,1.9746-1.4228,5.917,5.917,0,0,0,1.7456.2832h22.979a1.5,1.5,0,0,1,1.4931,1.6416l-2.0634,21.6973h5.43a7.4806,7.4806,0,0,0,1.8565-.2549,1.485,1.485,0,0,1,.3633-.0449,1.499,1.499,0,0,1,1.5,1.5v2.76a1.5,1.5,0,0,1-1.5,1.5Z" style="fill:#bef054"/><path d="M175.1379,93.3734a7.445,7.445,0,0,0,2.22.36h22.979l-2.22,23.3389h7.0795a9.0247,9.0247,0,0,0,2.22-.3v2.76a7.07,7.07,0,0,0-2.22-.3H172.318a8.6409,8.6409,0,0,0-2.22.3v-2.76a8.2911,8.2911,0,0,0,2.22.3h18.9595l1.86-21.1787H177.3581a8.6008,8.6008,0,0,0-2.22.3v-2.82m25.1992.36h.005m-25.204-3.36a3,3,0,0,0-3,3v2.82a3,3,0,0,0,3.73,2.91,5.6582,5.6582,0,0,1,1.49-.21h12.5043l-1.333,15.1787H172.318a5.3017,5.3017,0,0,1-1.4313-.1944,3,3,0,0,0-3.7884,2.8946v2.76a3,3,0,0,0,3.7267,2.9107,5.707,5.707,0,0,1,1.493-.21h32.8789a4.1517,4.1517,0,0,1,1.3947.1841,3,3,0,0,0,3.8251-2.8843v-2.76a3,3,0,0,0-3.7267-2.9107,6.0256,6.0256,0,0,1-1.4931.21h-3.7807l1.8951-19.9258a3.0019,3.0019,0,0,0-2.9692-3.4131h-22.984a4.4444,4.4444,0,0,1-1.271-.2062,2.9976,2.9976,0,0,0-.949-.1542Z" style="fill:#fdffcf"/><path d="M229.4377,125.2924a1.5,1.5,0,0,1-1.4165-1.0059l-.9-2.58a1.5,1.5,0,0,1,1.35-1.9922c3.664-.1641,10.6347-2.9629,14.3437-5.7588a28.2088,28.2088,0,0,0,11.9536-19.3213h-31.57a15.8615,15.8615,0,0,0-2.7378.2764,1.4839,1.4839,0,0,1-.2617.0234,1.5,1.5,0,0,1-1.5-1.5V90.3734a1.5,1.5,0,0,1,1.81-1.4677,13.0218,13.0218,0,0,0,2.69.3281h43.1382a1.4992,1.4992,0,0,1,1.4941,1.6309c-1.6743,19.0976-13.2148,30.0585-35.2807,33.51a6.4842,6.4842,0,0,0-2.3067.6836A1.497,1.497,0,0,1,229.4377,125.2924Zm32.459-43.3779a1.5044,1.5044,0,0,1-.2945-.0293,11.8265,11.8265,0,0,0-2.7055-.27H227.5778a16.0348,16.0348,0,0,0-2.7519.2793,1.5215,1.5215,0,0,1-.2476.02,1.5006,1.5006,0,0,1-1.5-1.5v-3a1.499,1.499,0,0,1,1.7461-1.48,16.6415,16.6415,0,0,0,2.7534.2793h31.3189a15.3732,15.3732,0,0,0,2.7241-.2745,1.5509,1.5509,0,0,1,.2759-.0253,1.5,1.5,0,0,1,1.5,1.5v3a1.5,1.5,0,0,1-1.5,1.5Z" style="fill:#bef054"/><path d="M261.8967,77.4145v3a13.3643,13.3643,0,0,0-3-.3H227.5778a17.4464,17.4464,0,0,0-2.9995.3v-3a18.1679,18.1679,0,0,0,2.9995.3h31.3189a16.9887,16.9887,0,0,0,3-.3M220.1984,90.3734a14.4649,14.4649,0,0,0,3,.36h43.1382c-1.62,18.48-12.5391,28.7988-34.0185,32.1582a7.7577,7.7577,0,0,0-2.88.9l-.9-2.58c4.02-.18,11.28-3.1191,15.18-6.06,7.4394-5.2793,11.6391-12.539,12.7788-22.0185H223.1979a17.4464,17.4464,0,0,0-3,.3V90.3734m46.1377.36h.005M224.5783,74.4144a3,3,0,0,0-3,3v3a3,3,0,0,0,3.4952,2.9588,14.576,14.576,0,0,1,2.5043-.2586h31.3189a10.4013,10.4013,0,0,1,2.4111.2414,3,3,0,0,0,3.5889-2.9416v-3a3,3,0,0,0-3.552-2.9488,14.0308,14.0308,0,0,1-2.448.2486H227.5778a15.2223,15.2223,0,0,1-2.507-.2591,3.01,3.01,0,0,0-.4925-.0408Zm-4.38,12.959a3,3,0,0,0-3,3V93.434a3,3,0,0,0,3.5234,2.954,14.55,14.55,0,0,1,2.4761-.2538h29.7548a26.509,26.509,0,0,1-10.9714,16.572q-.0354.025-.07.0511c-3.454,2.6042-10.1446,5.3077-13.5076,5.458a3,3,0,0,0-2.6987,3.985l.9,2.58a3,3,0,0,0,4.4428,1.5433,5.2523,5.2523,0,0,1,1.6208-.4523q.0564-.0067.1125-.0154c22.7966-3.5654,34.7476-14.9246,36.5318-34.7278a3.0358,3.0358,0,0,0,.0257-.3944,2.9978,2.9978,0,0,0-2.9975-3H223.1979a11.5882,11.5882,0,0,1-2.3807-.2958,2.9976,2.9976,0,0,0-.6188-.0646Z" style="fill:#fdffcf"/><path d="M269.5822,124.0873a1.5006,1.5006,0,0,1-1.0957-.6123l-1.44-1.9795a1.5,1.5,0,0,1,.6694-2.2812c1.5195-.5909,4.0088-2.8457,6.144-6.5508,2.5362-4.7354,3.3995-9.1436,3.3995-17.43v-12.72a12.0386,12.0386,0,0,0-.271-2.7071,1.5,1.5,0,0,1,1.4712-1.7929h8.1591a1.5,1.5,0,0,1,1.4746,1.7763,15.33,15.33,0,0,0-.2744,2.7237v12.72c0,13.31-4.5591,21.4551-15.2451,27.2383a8.9175,8.9175,0,0,0-1.8135,1.1806,1.5,1.5,0,0,1-1.06.44C269.66,124.0922,269.6213,124.09,269.5822,124.0873Zm24.2959-1.0752a1.5,1.5,0,0,1-1.5-1.5V79.7543a11.8322,11.8322,0,0,0-.2705-2.7061,1.4992,1.4992,0,0,1,1.4707-1.7939h8.2793a1.5,1.5,0,0,1,1.4746,1.7764,15.329,15.329,0,0,0-.2744,2.7236v30.1016c7.8232-2.5244,16.3769-11.458,17.3525-18.5459a1.5006,1.5006,0,0,1,2.0772-1.1748l2.52,1.08a1.5013,1.5013,0,0,1,.751,2.05l-.1563.3106a14.4093,14.4093,0,0,0-1.1943,3.0059c-4.8321,14.9931-14.4429,23.3789-30.2486,26.4042A1.522,1.522,0,0,1,293.8781,123.0121Z" style="fill:#bef054"/><path d="M301.8576,76.7543a16.9784,16.9784,0,0,0-.3,3v32.0391c8.9394-1.74,19.1992-12,20.3389-20.2793l2.52,1.08a16.6473,16.6473,0,0,0-1.44,3.5391c-4.68,14.5195-13.7392,22.4395-29.0986,25.3789V79.7543a13.37,13.37,0,0,0-.3-3h8.2793m-15.2393,2.76a16.9775,16.9775,0,0,0-.3,3v12.72c0,12.72-4.26,20.3994-14.459,25.9189a10.24,10.24,0,0,0-2.16,1.44l-1.44-1.98c2.16-.84,4.86-3.66,6.9-7.2,2.6993-5.0391,3.6-9.6592,3.6-18.1787v-12.72a13.4281,13.4281,0,0,0-.3-3h8.1591m15.2393-5.76h-8.2793a3,3,0,0,0-2.9417,3.5888,10.3967,10.3967,0,0,1,.2415,2.4112v41.7578a3,3,0,0,0,3.5639,2.9465c16.4012-3.1388,26.3757-11.847,31.39-27.4051a13.1558,13.1558,0,0,1,1.1117-2.8052l.1566-.3125a3,3,0,0,0-1.5016-4.0991l-2.52-1.08a3,3,0,0,0-4.1536,2.3483c-.8138,5.9118-7.6747,13.4786-14.3669,16.5535V79.7543a14.03,14.03,0,0,1,.2486-2.448,3,3,0,0,0-2.9488-3.552Zm0,6h0Zm-15.2393-3.24h-8.1591a3,3,0,0,0-2.9422,3.5865,10.4444,10.4444,0,0,1,.242,2.4135v12.72c0,7.98-.8138,12.2085-3.2221,16.7209-1.8519,3.1992-4.0978,5.3692-5.365,5.8619a3,3,0,0,0-1.3387,4.5613l1.44,1.98a3,3,0,0,0,2.1915,1.2256q.1175.0093.2345.0092a3,3,0,0,0,2.1211-.8786,8.5184,8.5184,0,0,1,1.449-.9129c11.1046-6.01,16.0488-14.8169,16.0488-28.5669v-12.72a14.0309,14.0309,0,0,1,.2486-2.4481,3,3,0,0,0-2.9488-3.5519Zm0,6h0Z" style="fill:#fdffcf"/><path d="M323.0392,122.893a1.4994,1.4994,0,0,1-1.1308-.5147l-1.62-1.86a1.499,1.499,0,0,1,.3544-2.2686c6.3926-3.8691,12.5743-19.1513,13.4991-33.373l.1767-2.5928v-.7891a1.5,1.5,0,0,1,1.5-1.5,1.5411,1.5411,0,0,1,.3194.0342l9.3593,2.04a1.5,1.5,0,0,1,1.043,2.0937,8.97,8.97,0,0,0-.6582,2.4736c-3.2119,17.668-8.5156,26.67-20.2754,34.4473a4.9237,4.9237,0,0,0-1.4062,1.26,1.5018,1.5018,0,0,1-1.1377.55Zm44.6377-1.38a1.5,1.5,0,0,1-1.4961-1.6045c.1426-2.0381-2.9785-14.38-5.7695-21.1-2.2627-6.2832-6.1729-13.1231-7.1465-13.8506a1.4187,1.4187,0,0,1-.8027-1.1875,1.4945,1.4945,0,0,1,.6465-1.3252l3.42-2.52a1.504,1.504,0,0,1,.89-.292,1.5472,1.5472,0,0,1,.2422.0195,1.499,1.499,0,0,1,.9864.62l.2128.3077a8.3161,8.3161,0,0,0,.9766,1.2119,93.4575,93.4575,0,0,1,17.4756,30.2216,11.26,11.26,0,0,0,1.0273,2.4522,1.5013,1.5013,0,0,1-.6172,2.08l-9.36,4.8008A1.5022,1.5022,0,0,1,367.6769,121.5131Z" style="fill:#bef054"/><path d="M357.4181,81.1342a11.0638,11.0638,0,0,0,1.3194,1.68,92.3011,92.3011,0,0,1,17.1592,29.6992,12.5854,12.5854,0,0,0,1.1406,2.6992l-9.36,4.8008c.1807-2.58-3.2392-15.42-5.88-21.7793-2.1591-6-6.4189-13.92-7.7988-14.58l3.42-2.5195m-21.6.36,9.3594,2.04a10.44,10.44,0,0,0-.7793,2.8789c-3.12,17.16-8.28,25.92-19.6191,33.4189a6.3168,6.3168,0,0,0-1.74,1.5606l-1.62-1.86c6.84-4.14,13.26-19.7988,14.22-34.5586l.18-2.64v-.84m21.6-3.36a3,3,0,0,0-1.7794.5847l-3.42,2.5195a3,3,0,0,0,.1383,4.9267c1.08,1.1544,4.5541,7.3517,6.6172,13.0845q.0244.0679.0521.1346c2.65,6.3816,5.7336,18.3653,5.6572,20.431a2.9963,2.9963,0,0,0,4.3624,2.8673l9.36-4.8008a3,3,0,0,0,1.2349-4.1591,9.7353,9.7353,0,0,1-.8842-2.114q-.0144-.0456-.03-.0907a94.9785,94.9785,0,0,0-17.7517-30.7023l-.04-.0436a6.926,6.926,0,0,1-.8379-1.0372l-.2219-.3215a3,3,0,0,0-2.4574-1.2791Zm-21.5995.36a3,3,0,0,0-3,3v.7379l-.1727,2.5379c-.9763,15.01-7.5186,29.0114-12.78,32.1958a3,3,0,0,0-.709,4.5367l1.62,1.86a3,3,0,0,0,2.2622,1.03l.0464,0a3,3,0,0,0,2.2758-1.1,3.4273,3.4273,0,0,1,1.0394-.9359c12.0337-7.9582,17.7025-17.5484,20.95-35.4064q.0084-.046.0153-.0922a7.7327,7.7327,0,0,1,.5367-2.0671,3,3,0,0,0-2.0854-4.1875l-9.3594-2.04a2.9973,2.9973,0,0,0-.6388-.0689Z" style="fill:#fdffcf"/><path d="M379.1984,102.1938a1.5,1.5,0,0,1-1.5-1.5v-4.44a1.5009,1.5009,0,0,1,2.0283-1.4043,10.2393,10.2393,0,0,0,2.1719.2041H423.717a13.994,13.994,0,0,0,2.4638-.27,1.5231,1.5231,0,0,1,.2959-.0293,1.5011,1.5011,0,0,1,1.5,1.5v4.4405a1.4985,1.4985,0,0,1-1.5,1.5,1.5176,1.5176,0,0,1-.2568-.0225,12.89,12.89,0,0,0-2.5029-.2783H381.8986a8.6552,8.6552,0,0,0-2.2246.2236A1.5,1.5,0,0,1,379.1984,102.1938Z" style="fill:#bef054"/><path d="M426.4767,96.2533v4.4405a14.3885,14.3885,0,0,0-2.76-.3008H381.8986a9.7989,9.7989,0,0,0-2.7.3008v-4.44a10.4584,10.4584,0,0,0,2.7.3H423.717a15.4121,15.4121,0,0,0,2.76-.3m0-3a2.993,2.993,0,0,0-.5908.0588,12.5871,12.5871,0,0,1-2.1689.241H381.8986a10.35,10.35,0,0,1-1.7329-.14,3,3,0,0,0-3.9673,2.84v4.4405a3,3,0,0,0,3.9518,2.845,8.2832,8.2832,0,0,1,1.7484-.1458H423.717a11.3973,11.3973,0,0,1,2.2452.2563,3,3,0,0,0,3.5145-2.9555v-4.44a3,3,0,0,0-3-3Z" style="fill:#fdffcf"/><path d="M464.3371,123.7328c-9.3809,0-12.32-.3076-15.1328-2.4717-2.3848-1.8056-3.4063-4.64-3.4063-9.4677v-11.94H434.0988a11.8378,11.8378,0,0,0-2.7061.27,1.4992,1.4992,0,0,1-1.7939-1.4707v-3a1.5,1.5,0,0,1,1.5-1.5,1.5566,1.5566,0,0,1,.2764.0254,14.8662,14.8662,0,0,0,2.7236.2744H445.798V83.1742h-8.6992a16.0484,16.0484,0,0,0-2.7539.2793,1.4995,1.4995,0,0,1-1.7461-1.48v-3a1.5,1.5,0,0,1,1.5-1.5,1.4716,1.4716,0,0,1,.2773.0264,15.3381,15.3381,0,0,0,2.7227.2734h36.7783a15.3826,15.3826,0,0,0,2.7383-.2763,1.4746,1.4746,0,0,1,.2617-.0235,1.5,1.5,0,0,1,1.5,1.5v3a1.499,1.499,0,0,1-1.7939,1.4707,11.8378,11.8378,0,0,0-2.7061-.27h-17.34V94.4535h21.6a14.485,14.485,0,0,0,2.706-.27,1.4994,1.4994,0,0,1,1.794,1.4707v3a1.5,1.5,0,0,1-1.5,1.5,1.4839,1.4839,0,0,1-.2617-.0234,14.99,14.99,0,0,0-2.7383-.2764h-21.6v11.2188c0,2.2353,0,2.7,5.04,2.7,7.2344,0,15.1836-.378,16.376-.6748a1.4972,1.4972,0,0,1,1.2861.2724,1.5016,1.5016,0,0,1,.5772,1.1826v7.4395a1.5,1.5,0,0,1-1.5,1.5q-.0673,0-.1348-.0059l-.3037-.0283c-.5166-.0478-.9248-.0859-1.3613-.0859-.4864,0-.4864,0-2.1123.1162C472.0939,123.6576,468.9884,123.7328,464.3371,123.7328Z" style="fill:#bef054"/><path d="M476.8771,78.974v3a13.37,13.37,0,0,0-3-.3h-18.84V95.9535h23.1a15.9184,15.9184,0,0,0,3-.3v3a16.3555,16.3555,0,0,0-3-.3h-23.1v12.7188c0,3.48,1.1406,4.2,6.54,4.2,7.14,0,15.3-.36,16.7393-.72v7.4395c-.66-.06-1.2-.12-1.8-.12-.54,0-.54,0-2.22.12-2.46.18-5.76.24-9.96.24-9.5391,0-11.8789-.36-14.2188-2.16-1.98-1.5-2.82-3.96-2.82-8.2793v-13.44H434.0988a13.37,13.37,0,0,0-3,.3v-3a16.4265,16.4265,0,0,0,3,.3H447.298V81.6742H437.0988a17.5521,17.5521,0,0,0-3,.3v-3a16.8848,16.8848,0,0,0,3,.3h36.7783a16.8931,16.8931,0,0,0,3-.3m0-3a2.99,2.99,0,0,0-.5229.046,13.79,13.79,0,0,1-2.4771.2538H437.0988a13.9308,13.9308,0,0,1-2.4451-.248,3,3,0,0,0-3.5549,2.9482v3a2.9993,2.9993,0,0,0,3.4923,2.9593,14.7334,14.7334,0,0,1,2.5077-.2591h7.1992v8.2793H434.0988a13.4341,13.4341,0,0,1-2.448-.2486,3,3,0,0,0-3.552,2.9488v3a3,3,0,0,0,3.5888,2.9417,10.4017,10.4017,0,0,1,2.4112-.2415H444.298v10.44c0,3.5544.4557,7.98,4.0091,10.6708,3.149,2.4223,6.2482,2.7686,16.03,2.7686,4.6894,0,7.8285-.0765,10.1785-.2482,1.5682-.1121,1.5682-.1121,2.0012-.1121.3671,0,.7444.0351,1.222.08l.3081.0283q.1352.0123.27.0122a3,3,0,0,0,3-3v-7.4395a3,3,0,0,0-3.7267-2.9106,157.4424,157.4424,0,0,1-16.0126.63,14.5483,14.5483,0,0,1-3.485-.2511,6.3251,6.3251,0,0,1-.055-.9491v-9.7188h20.1a13.4232,13.4232,0,0,1,2.477.2539,3,3,0,0,0,3.523-2.9541v-3a3,3,0,0,0-3.5872-2.942,12.8978,12.8978,0,0,1-2.4128.2418h-20.1V84.6742h15.84a10.4022,10.4022,0,0,1,2.4112.2415,3,3,0,0,0,3.5888-2.9417v-3a3,3,0,0,0-3-3Z" style="fill:#fdffcf"/><path d="M485.5783,119.4731a1.5013,1.5013,0,0,1-1.5-1.5v-8.04a1.5,1.5,0,0,1,1.5-1.5,1.5566,1.5566,0,0,1,.2764.0254,15.3663,15.3663,0,0,0,2.7236.2744h41.8779a15.3683,15.3683,0,0,0,2.7237-.2744,1.5555,1.5555,0,0,1,.2763-.0254,1.5,1.5,0,0,1,1.5,1.5v8.04a1.4995,1.4995,0,0,1-1.5,1.5,1.52,1.52,0,0,1-.2949-.0293,11.9651,11.9651,0,0,0-2.7051-.2715H488.5783a16.1576,16.1576,0,0,0-2.7529.28A1.5046,1.5046,0,0,1,485.5783,119.4731Zm4.9805-30.6592a1.5,1.5,0,0,1-1.5-1.5v-3.84a1.5,1.5,0,0,1,1.5-1.5,1.5555,1.5555,0,0,1,.2763.0254,15.34,15.34,0,0,0,2.7227.2744h31.8594a15.3663,15.3663,0,0,0,2.7236-.2744,1.5566,1.5566,0,0,1,.2764-.0254,1.5,1.5,0,0,1,1.5,1.5v3.84a1.4991,1.4991,0,0,1-1.794,1.4707,11.8308,11.8308,0,0,0-2.706-.27H493.5578a16.0169,16.0169,0,0,0-2.7529.2793A1.5034,1.5034,0,0,1,490.5588,88.8139Z" style="fill:#bef054"/><path d="M528.4172,83.474v3.84a13.3643,13.3643,0,0,0-3-.3H493.5578a17.5408,17.5408,0,0,0-2.999.3v-3.84a16.957,16.957,0,0,0,2.999.3h31.8594a16.9793,16.9793,0,0,0,3-.3m5.039,26.459v8.04a13.3618,13.3618,0,0,0-3-.3008H488.5783a17.4655,17.4655,0,0,0-3,.3008v-8.04a16.9784,16.9784,0,0,0,3,.3h41.8779a16.9775,16.9775,0,0,0,3-.3M490.5588,80.474a3,3,0,0,0-3,3v3.84a3,3,0,0,0,3.4928,2.9592,14.7085,14.7085,0,0,1,2.5062-.259h31.8594a10.4016,10.4016,0,0,1,2.4112.2414,3,3,0,0,0,3.5888-2.9416v-3.84a3,3,0,0,0-3.552-2.9488,14.0308,14.0308,0,0,1-2.448.2486H493.5578a14,14,0,0,1-2.4465-.2485,3.0026,3.0026,0,0,0-.5525-.0513Zm42.8974,26.459a3.005,3.005,0,0,0-.552.0512,14.03,14.03,0,0,1-2.448.2486H488.5783a14.0308,14.0308,0,0,1-2.448-.2486,3,3,0,0,0-3.552,2.9488v8.04a2.9995,2.9995,0,0,0,3.4949,2.9588,14.6251,14.6251,0,0,1,2.5051-.26h41.8779a10.394,10.394,0,0,1,2.4108.2423,3,3,0,0,0,3.5892-2.9415v-8.04a3,3,0,0,0-3-3Z" style="fill:#fdffcf"/><path d="M539.2179,102.1938a1.5,1.5,0,0,1-1.5-1.5v-4.44a1.501,1.501,0,0,1,2.0284-1.4043,10.2373,10.2373,0,0,0,2.1718.2041h41.8184a13.9951,13.9951,0,0,0,2.4639-.27,1.5216,1.5216,0,0,1,.2959-.0293,1.5011,1.5011,0,0,1,1.5,1.5v4.4405a1.4987,1.4987,0,0,1-1.5,1.5,1.5178,1.5178,0,0,1-.2569-.0225,12.89,12.89,0,0,0-2.5029-.2783H541.9181a8.6552,8.6552,0,0,0-2.2246.2236A1.5,1.5,0,0,1,539.2179,102.1938Z" style="fill:#bef054"/><path d="M586.4963,96.2533v4.4405a14.3886,14.3886,0,0,0-2.76-.3008H541.9181a9.7994,9.7994,0,0,0-2.7.3008v-4.44a10.459,10.459,0,0,0,2.7.3h41.8184a15.4131,15.4131,0,0,0,2.76-.3m0-3a2.9937,2.9937,0,0,0-.5908.0588,12.5871,12.5871,0,0,1-2.1689.241H541.9181a10.3517,10.3517,0,0,1-1.7329-.14,3,3,0,0,0-3.9673,2.84v4.4405a3,3,0,0,0,3.9518,2.845,8.2832,8.2832,0,0,1,1.7484-.1458h41.8184a11.3973,11.3973,0,0,1,2.2452.2563,3,3,0,0,0,3.5146-2.9555v-4.44a3,3,0,0,0-3-3Z" style="fill:#fdffcf"/></g></g></svg>